<svg xmlns="http://www.w3.org/2000/svg" xmlns:xlink="http://www.w3.org/1999/xlink" viewBox="0 0 32 32"><defs><linearGradient id="a" x1="2" y1="16" x2="30" y2="16" gradientUnits="userSpaceOnUse"><stop offset="0" stop-color="#f1564e"/><stop offset="1" stop-color="#fdd835"/></linearGradient></defs><path d="M28,8H22V4a2,2,0,0,0-2-2H10A2,2,0,0,0,8,4V8H18v2H4a2,2,0,0,0-2,2V22a2,2,0,0,0,2,2h6v4a2,2,0,0,0,2,2H22a2,2,0,0,0,2-2V24H14V22H28a2,2,0,0,0,2-2V10A2,2,0,0,0,28,8ZM14,6H10V4h4Zm4,20h4v2H18Z" style="opacity:0.6;fill:url(#a)"/></svg>