<svg xmlns="http://www.w3.org/2000/svg" xmlns:xlink="http://www.w3.org/1999/xlink" viewBox="0 0 32 32"><defs><linearGradient id="a" x1="10" y1="19" x2="30" y2="19" gradientUnits="userSpaceOnUse"><stop offset="0" stop-color="#ff9800"/><stop offset="1" stop-color="#fdd835"/></linearGradient><linearGradient id="b" x1="2" y1="13" x2="22" y2="13" gradientUnits="userSpaceOnUse"><stop offset="0" stop-color="#ef5350"/><stop offset="0.57" stop-color="#ff6e40"/><stop offset="1" stop-color="#f57c00"/></linearGradient></defs><path d="M28,8H24v8H10V28a2,2,0,0,0,2,2H22a2,2,0,0,0,2-2V24H14V22H28a2,2,0,0,0,2-2V10A2,2,0,0,0,28,8ZM18,26h4v2H18Z" style="fill:url(#a)"/><path d="M20,2H10A2,2,0,0,0,8,4V8H18v2H4a2,2,0,0,0-2,2V22a2,2,0,0,0,2,2H8V14H22V4A2,2,0,0,0,20,2ZM14,6H10V4h4Z" style="isolation:isolate;fill:url(#b)"/></svg>