<svg xmlns="http://www.w3.org/2000/svg" viewBox="0 0 32 32"><path d="M30,12H28V10a1.99943,1.99943,0,0,0-2-2H15.12a2.01988,2.01988,0,0,1-1.28-.47L12.56,6.46A2.00984,2.00984,0,0,0,11.28,6H4A1.99943,1.99943,0,0,0,2,8V24a2.00591,2.00591,0,0,0,2,2H26l1.41418-1.41425A1.99975,1.99975,0,0,0,28,23.17157v-.34314a1.99982,1.99982,0,0,1,.58582-1.41425l.82836-.82843A1.99975,1.99975,0,0,0,30,19.17157v-.34314a1.99982,1.99982,0,0,1,.58582-1.41425l.82836-.82843A1.99975,1.99975,0,0,0,32,15.17157V14A2,2,0,0,0,30,12Zm-1.41418,3.41418A1.99982,1.99982,0,0,0,28,16.82843v.343a2.00018,2.00018,0,0,1-.58582,1.41436l-.82843.8285A2,2,0,0,0,26,20.82843v.34314a1.99989,1.99989,0,0,1-.58569,1.41406L24,24c-4.88,0-17.82-.01-20-.01.01-1.08-.01-9.54,0-10.87C4.01,12.78,3.99,8.1,4,8h.74c1.39,0,5.2-.01,6.54,0,.28.24.98.81,1.25995,1.05,1.27,1.23,3.48.92,5.1.95H26v2H10.82843a2.00016,2.00016,0,0,0-1.41425.58575l-.82836.82843A1.99982,1.99982,0,0,0,8,14.82843v.343a2.00018,2.00018,0,0,1-.58582,1.41436l-.82843.8285A2,2,0,0,0,6,18.82843V20H8l1.41431-1.41437A1.99989,1.99989,0,0,0,10,17.17157v-.34314a1.99982,1.99982,0,0,1,.58582-1.41425l.82836-.82843A2.00016,2.00016,0,0,1,12.82843,14H30Z" style="fill:#ffa726"/></svg>