<svg xmlns="http://www.w3.org/2000/svg" viewBox="0 0 32 32"><path d="M30,16c0-1.97345-2.233-3.719-5.66449-4.8125C25.10425,7.669,24.70905,4.86237,23,3.87567a2.87011,2.87011,0,0,0-1.45691-.36859c-1.58215,0-3.55286,1.05188-5.543,2.86426-1.99017-1.81256-3.961-2.8645-5.54321-2.86426h-.00006A2.87065,2.87065,0,0,0,9,3.87567C7.291,4.86237,6.89575,7.669,7.66449,11.1875,4.233,12.281,2,14.02655,2,16s2.233,3.719,5.66449,4.8125C6.89575,24.331,7.291,27.13763,9,28.12433a2.87011,2.87011,0,0,0,1.45691.36859c1.58215,0,3.553-1.05188,5.54309-2.86432,1.99011,1.81244,3.96094,2.86432,5.54309,2.86432A2.87011,2.87011,0,0,0,23,28.12433c1.70905-.9867,2.10425-3.79334,1.33551-7.31183C27.767,19.719,30,17.97345,30,16ZM22,5.60773c.48657.28088.89374,1.55969.63806,3.70355-.07251.45416-.18408.89911-.282,1.34741a27.63435,27.63435,0,0,0-2.99109-.47693,27.50384,27.50384,0,0,0-1.95471-2.39929c1.62512-1.47229,3.11938-2.27539,4.13287-2.27539A.89986.89986,0,0,1,22,5.60773Zm-.465,12.775q.19135.51892.34833,1.014-.50656.111-1.04938.20489c.12116-.19989.244-.39672.36225-.60162C21.315,18.79419,21.42194,18.5885,21.535,18.38269ZM19.46411,18c-.38812.67224-.79,1.30969-1.19977,1.91144C17.541,19.96533,16.79053,20,16,20s-1.541-.03467-2.26434-.08856c-.40979-.60175-.81165-1.2392-1.19977-1.91144-.387-.6424-.73975-1.303-1.06458-1.9762.31726-.65924.66559-1.33276,1.06458-2.0238.38812-.67224.79-1.30969,1.19977-1.91144C14.45905,12.03467,15.20947,12,16,12s1.54095.03467,2.26434.08856c.40979.60175.81165,1.2392,1.19977,1.91144.399.691.74732,1.36456,1.06458,2.0238C20.20386,16.697,19.85107,17.3576,19.46411,18ZM16,22.79669q-.3511-.38718-.70276-.81189c.23438.005.46552.0152.70276.0152s.46838-.01019.7027-.0152Q16.35113,22.4087,16,22.79669ZM10.80383,19c.11829.2049.24109.40173.36225.60162q-.54355-.09356-1.04938-.20489.15756-.49539.34833-1.014C10.57806,18.5885,10.685,18.79419,10.80383,19Zm-.335-5.38977c-.11871-.33368-.21228-.67554-.31628-1.01422.32684-.071.66363-.13745,1.01349-.19763-.12116.19989-.244.39672-.36225.60162C10.68634,13.20349,10.58069,13.40674,10.46887,13.61023Zm5.53119-4.40692q.3512.38718.7027.81189C16.46838,10.01019,16.23724,10,16,10s-.46838.01019-.7027.0152Q15.64887,9.5913,16.00006,9.20331ZM21.19617,13c-.11829-.2049-.24109-.40173-.36225-.60162.3498.06018.68665.12658,1.01349.19763-.104.33862-.19763.68054-.31628,1.01422C21.41931,13.40674,21.31366,13.20349,21.19617,13ZM9.36188,9.31128C9.10626,7.16742,9.51343,5.88861,10,5.60767a.90264.90264,0,0,1,.45764-.10059h.00006c1.01337.00018,2.50733.80328,4.1322,2.27539a27.51348,27.51348,0,0,0-1.95483,2.39929,27.62311,27.62311,0,0,0-2.99115.47693C9.546,10.21039,9.43439,9.76544,9.36188,9.31128ZM4,16c0-.80829,1.50281-2.00244,4.18231-2.876A27.59279,27.59279,0,0,0,9.281,16a27.59359,27.59359,0,0,0-1.09876,2.876C5.50275,18.00244,4,16.80829,4,16Zm6,10.39233c-.7-.40417-.98285-2.30267-.3996-5.06a27.6047,27.6047,0,0,0,3.03467.4859,27.512,27.512,0,0,0,1.95477,2.39923c-1.62512,1.47235-3.11938,2.27545-4.13293,2.27545A.90043.90043,0,0,1,10,26.39233Zm12-.00006a.89986.89986,0,0,1-.45691.10065c-1.01355,0-2.50781-.8031-4.13293-2.27545a27.512,27.512,0,0,0,1.95477-2.39923,27.6047,27.6047,0,0,0,3.03467-.4859C22.98285,24.08966,22.7,25.98816,22,26.39227ZM23.81775,18.876A27.59359,27.59359,0,0,0,22.719,16a27.59279,27.59279,0,0,0,1.0987-2.876C26.49719,13.99756,28,15.19171,28,16S26.49725,18.00244,23.81775,18.876Z" style="fill:#78909c"/><circle cx="16" cy="16" r="2" style="fill:#78909c"/></svg>