<svg xmlns="http://www.w3.org/2000/svg" viewBox="0 0 32 32"><path d="M21.59223,3.50666l-.04914.00042c-1.58215,0-3.55286,1.05188-5.543,2.86426C14.01019,4.559,12.03956,3.5071,10.45745,3.50708h-.0006L10.408,3.50667A2.87028,2.87028,0,0,0,9,3.87567C7.291,4.86237,6.89575,7.669,7.66449,11.1875,4.233,12.281,2,14.02655,2,16s2.233,3.719,5.66449,4.8125C6.89575,24.331,7.291,27.13763,9,28.12433a2.87016,2.87016,0,0,0,1.40777.369l.04914-.00042c1.58215,0,3.553-1.05188,5.54309-2.86432,1.99011,1.81244,3.96094,2.86432,5.54309,2.86432l.04914.00042A2.87,2.87,0,0,0,23,28.12433c1.70905-.9867,2.10425-3.79334,1.33551-7.31183C27.767,19.719,30,17.97345,30,16s-2.233-3.719-5.66449-4.8125C25.10425,7.669,24.70905,4.86237,23,3.87567a2.87016,2.87016,0,0,0-1.40777-.369Zm-11.94831,7.152c-.098-.4483-.20953-.89325-.282-1.34741C9.10626,7.16742,9.51343,5.88861,10,5.60767a.90269.90269,0,0,1,.416-.10155l.04164.001h.00006c1.01337.00018,2.50733.80328,4.1322,2.27539a27.51348,27.51348,0,0,0-1.95483,2.39929,27.62311,27.62311,0,0,0-2.99115.47693Zm12.7121,0a27.63435,27.63435,0,0,0-2.99109-.47693,27.50384,27.50384,0,0,0-1.95471-2.39929c1.62512-1.47229,3.11938-2.27539,4.13287-2.27539l.04152-.001A.89983.89983,0,0,1,22,5.60773c.48657.28088.89374,1.55969.63806,3.70355-.07251.45416-.18408.89911-.282,1.34741ZM15.2973,10.0152q.35157-.4239.70276-.81189.3512.38718.7027.81189C16.46838,10.01019,16.23724,10,16,10s-.46838.01019-.7027.0152ZM16,20c-.79053,0-1.541-.03467-2.26434-.08856-.40979-.60175-.81165-1.2392-1.19977-1.91144-.387-.6424-.73975-1.303-1.06458-1.9762.31726-.65924.66559-1.33276,1.06458-2.0238.38812-.67224.79-1.30969,1.19977-1.91144C14.45905,12.03467,15.20947,12,16,12s1.54095.03467,2.26434.08856c.40979.60175.81165,1.2392,1.19977,1.91144.399.691.74732,1.36456,1.06458,2.0238-.32483.67322-.67762,1.3338-1.06458,1.9762-.38812.67224-.79,1.30969-1.19977,1.91144C17.541,19.96533,16.79053,20,16,20Zm5.53113-6.38977c-.11182-.20349-.21747-.40674-.335-.61023-.11829-.2049-.24109-.40173-.36225-.60162.3498.06018.68665.12658,1.01349.19763-.104.33862-.19763.68054-.31628,1.01422Zm-11.06226,0c-.11871-.33368-.21228-.67554-.31628-1.01422.32684-.071.66363-.13745,1.01349-.19763-.12116.19989-.244.39672-.36225.60162-.11749.20349-.22314.40674-.335.61023ZM23.81775,18.876A27.59359,27.59359,0,0,0,22.719,16a27.59279,27.59279,0,0,0,1.0987-2.876C26.49719,13.99756,28,15.19171,28,16s-1.50275,2.00244-4.18225,2.876Zm-15.6355,0C5.50275,18.00244,4,16.80829,4,16s1.50281-2.00244,4.18231-2.876A27.59279,27.59279,0,0,0,9.281,16a27.59359,27.59359,0,0,0-1.09876,2.876Zm12.65167.72564c.12116-.19989.244-.39672.36225-.60162.11883-.20581.22577-.4115.3388-.61731q.19135.51892.34833,1.014-.50656.111-1.04938.20489Zm-9.66784,0q-.54355-.09356-1.04938-.20489.15756-.49539.34833-1.014c.113.20581.22.4115.3388.61731.11829.2049.24109.40173.36225.60162Zm10.41853,6.89226-.04152-.001c-1.01355,0-2.50781-.8031-4.13293-2.27545a27.512,27.512,0,0,0,1.95477-2.39923,27.6047,27.6047,0,0,0,3.03467-.4859c.58325,2.75732.30041,4.65582-.3996,5.05993a.89983.89983,0,0,1-.41539.10161Zm-11.16922,0A.90039.90039,0,0,1,10,26.39233c-.7-.40417-.98285-2.30267-.3996-5.06a27.6047,27.6047,0,0,0,3.03467.4859,27.512,27.512,0,0,0,1.95477,2.39923c-1.62512,1.47235-3.11938,2.27545-4.13293,2.27545l-.04152.001ZM16,22c.23724,0,.46838-.01019.7027-.0152q-.35157.4239-.7027.81189-.3511-.38718-.70276-.81189c.23438.005.46552.0152.70276.0152Z" style="fill:#0288d1"/><path d="M16,14a2,2,0,1,0,2,2,2,2,0,0,0-2-2Z" style="fill:#0288d1"/></svg>