<svg xmlns="http://www.w3.org/2000/svg" viewBox="0 0 32 32"><path d="M26,11.998v2h2v14H14v-2H12v4L30,30V11.998Z" style="fill:#b388ff"/><path d="M16,14H14V12H12v2c0,.193,0,.703,1.254,1.033A3.345,3.345,0,0,1,16,18h2v2h2V18c0-.388-.562-.851-1.254-1.034C16.356,16.34,16,14.84,16,14m-3.254,2.966C10.356,16.34,10,14.84,10,14H8V12H6v8H8V18h4v2h2V18c0-.388-.562-.851-1.254-1.034" style="fill:#b388ff"/><path d="M2,2V23.998H24V2ZM22,14H20V12H18v2c0,.193,0,.703,1.254,1.033A3.345,3.345,0,0,1,22,18v2a2,2,0,0,1-2,2H18a2,2,0,0,1-2-2,2,2,0,0,1-2,2H12a2,2,0,0,1-2-2,2,2,0,0,1-2,2H6a2,2,0,0,1-2-2V12a2,2,0,0,1,2-2H8a2,2,0,0,1,2,2,2,2,0,0,1,2-2h2a2,2,0,0,1,2,2,2,2,0,0,1,2-2h2a2,2,0,0,1,2,2Z" style="fill:#b388ff"/></svg>