<svg xmlns="http://www.w3.org/2000/svg" viewBox="0 0 32 32"><path d="M26,2H2V26a4,4,0,0,0,4,4H28a2,2,0,0,0,2-2V6A4,4,0,0,0,26,2ZM12,20H10V18H8v8h2V24h2v2a2,2,0,0,1-2,2H8a2,2,0,0,1-2-2V18a2,2,0,0,1,2-2h2a2,2,0,0,1,2,2Zm8,0H18V18H16v2c0,.193,0,.703,1.254,1.033A3.345,3.345,0,0,1,20,24v2a2,2,0,0,1-2,2H16a2,2,0,0,1-2-2V24h2v2h2V24c0-.388-.562-.851-1.254-1.034C14.356,22.34,14,20.84,14,20V18a2,2,0,0,1,2-2h2a2,2,0,0,1,2,2Zm8,0H26V18H24v2c0,.193,0,.703,1.254,1.033A3.345,3.345,0,0,1,28,24v2a2,2,0,0,1-2,2H24a2,2,0,0,1-2-2V24h2v2h2V24c0-.388-.562-.851-1.254-1.034C22.356,22.34,22,20.84,22,20V18a2,2,0,0,1,2-2h2a2,2,0,0,1,2,2Z" style="fill:#b388ff"/></svg>