<svg xmlns="http://www.w3.org/2000/svg" viewBox="0 0 32 32"><rect x="24" y="24" width="2" height="2" style="fill:#ffab40"/><path d="M24,6v4h1.5a.5.5,0,0,1,.5.5v1a.5.5,0,0,1-.5.5H24v6h4v2H24v2h2a2,2,0,0,1,2,2v2a2,2,0,0,1-2,2H24v2h4a2,2,0,0,0,2-2V12A6,6,0,0,0,24,6Z" style="fill:#ffab40"/><rect x="22" y="20" width="2" height="2" style="fill:#f57f17"/><path d="M23.5,14h-1a.5.5,0,0,1-.5-.5V12H10.5a.5.5,0,0,1-.5-.5v-1a.5.5,0,0,1,.5-.5H22V3.55145A5.94745,5.94745,0,0,0,18,2H16a5.97822,5.97822,0,0,0-4.4632,2H10A4,4,0,0,0,6,8a4,4,0,0,0-4,4V28a2,2,0,0,0,2,2H24V28H20V26h4V24H22a2,2,0,0,1-2-2V20a2,2,0,0,1,2-2h2V13.5A.49514.49514,0,0,1,23.5,14ZM20,18H16V28H14V18H10V16H20Z" style="fill:#f57f17"/></svg>