<svg xmlns="http://www.w3.org/2000/svg" viewBox="0 0 32 32"><path d="M19.849,5.49823A14.27815,14.27815,0,0,0,16,2a14.27815,14.27815,0,0,0-3.849,3.49823A10.96023,10.96023,0,0,0,11.12582,16.8764,2.18676,2.18676,0,0,0,13.0462,18h5.9076a2.18676,2.18676,0,0,0,1.92038-1.1236A10.96023,10.96023,0,0,0,19.849,5.49823ZM16,10a2,2,0,1,1,2-2A2.00591,2.00591,0,0,1,16,10Z" style="fill:#42a5f5"/><path d="M25.60651,12.142a13.98044,13.98044,0,0,1-1.22089,5.553l-.01715.03827-.0188.03753c-.04.08-.0907.15253-.13568.22913H30Z" style="fill:#42a5f5"/><path d="M7.65033,17.77087l-.0188-.03753-.01715-.03827a13.98044,13.98044,0,0,1-1.22089-5.553L2,18H7.786C7.741,17.9234,7.69037,17.85089,7.65033,17.77087Z" style="fill:#42a5f5"/><path d="M25.80988,22.42322,25.27191,22H20.4632a5.98,5.98,0,0,1-8.92633,0H6.7326l-.538.42322a.50685.50685,0,0,0-.12335.658l2.05609,3.55706a.51675.51675,0,0,0,.62714.2262l2.55981-1.03833a7.14236,7.14236,0,0,0,1.73743,1.01776l.38037,2.72431a.51976.51976,0,0,0,.514.43182h4.11218a.51971.51971,0,0,0,.514-.43182l.38037-2.72431a7.48819,7.48819,0,0,0,1.73743-1.01776l2.55987,1.03833a.5167.5167,0,0,0,.62708-.2262l2.05615-3.55706A.51866.51866,0,0,0,25.80988,22.42322Z" style="fill:#42a5f5"/></svg>