<svg xmlns="http://www.w3.org/2000/svg" viewBox="0 0 32 32"><path d="M14,22a2,2,0,0,0,2,2h6a2.00229,2.00229,0,0,0,2-2V18a2.00229,2.00229,0,0,0-2-2H16V12h8a2,2,0,0,0-2-2H16a2.00229,2.00229,0,0,0-2,2v4a2.00229,2.00229,0,0,0,2,2h6v4" style="fill:#8bc34a"/><polygon points="3.01 22.11 9.32 25.68 9 26 5.82 26 2 23.85 2 22.15 2.99 22.15 3.01 22.11" style="fill:#8bc34a"/><path d="M29.88,8.35,17.14,1.14a5.15913,5.15913,0,0,0-2.28,0L2.12,8.35,2,8.42V23.58l.12.07.38848.21943-.00067.00116L5.458,25.53906c.01343.00757.028.01264.04144.02L6.28,26H10a2.00229,2.00229,0,0,0,2-2V10H10V24H7.21094a1.56593,1.56593,0,0,1-.76856-.20215L4,22.41656V9.58L15.58,3.04,16,2.8l.42.24L28,9.58V22.42L16.42,28.96,16,29.2l-.42-.24-2.32-1.31-.16.16-1.31,1.31,3.08,1.74a4.97615,4.97615,0,0,0,2.26,0l12.75-7.21.12-.07V8.42Z" style="fill:#8bc34a"/><path d="M28.99,22.11,17.52,28.59a2.92893,2.92893,0,0,1-1.1.37L16,29.2l-.42-.24a2.92893,2.92893,0,0,1-1.1-.37l-1.38-.78-1.31,1.31-.16.16,1.87,1.05a4.58309,4.58309,0,0,0,1.37.53,4.97615,4.97615,0,0,0,2.26,0,4.58309,4.58309,0,0,0,1.37-.53L30,23.85V22.11Z" style="fill:#8bc34a"/><path d="M18.5,1.67a5.26052,5.26052,0,0,0-1.36-.53,5.15913,5.15913,0,0,0-2.28,0,5.26052,5.26052,0,0,0-1.36.53L2,8.15V9.89H3.01L14.48,3.41a2.92893,2.92893,0,0,1,1.1-.37L16,2.8l.42.24a2.92893,2.92893,0,0,1,1.1.37L28.99,9.89H30V8.15Z" style="fill:#8bc34a"/></svg>