<svg xmlns="http://www.w3.org/2000/svg" viewBox="0 0 32 32"><polygon points="4 22.42 9.48 25.52 9 26 6.28 26 2.12 23.65 2 23.58 2 16 4 16 4 22.42" style="fill:#546e7a"/><polygon points="3.01 22.11 9.32 25.68 9 26 5.82 26 2 23.85 2 22.15 2.99 22.15 3.01 22.11" style="fill:#546e7a"/><path d="M18.5,1.67a5.26052,5.26052,0,0,0-1.36-.53,5.15913,5.15913,0,0,0-2.28,0,5.26052,5.26052,0,0,0-1.36.53L2,8.15V9.89H3.01L14.48,3.41a2.92893,2.92893,0,0,1,1.1-.37L16,2.8l.42.24a2.92893,2.92893,0,0,1,1.1.37L28.99,9.89H30V8.15Z" style="fill:#546e7a"/><path d="M16,14.51459V12h8a2,2,0,0,0-2-2H16a2.00229,2.00229,0,0,0-2,2v4a1.97265,1.97265,0,0,0,.09131.56531A11.05485,11.05485,0,0,1,16,14.51459Z" style="fill:#546e7a"/><path d="M29.88,8.35,17.14,1.14a5.15913,5.15913,0,0,0-2.28,0L2.12,8.35,2,8.42V23.58l.12.07.38848.21943-.00067.00116L5.458,25.53906c.01343.00757.028.01264.04144.02L6.28,26H10a2.00229,2.00229,0,0,0,2-2V10H10V24H7.21094a1.56593,1.56593,0,0,1-.76856-.20215L4,22.41656V9.58L15.58,3.04,16,2.8l.42.24L28,9.58v3.63043a11.00685,11.00685,0,0,1,2,1.30414V8.42Z" style="fill:#546e7a"/><path d="M28,30H18a2.00135,2.00135,0,0,1-2-2V22a1.97922,1.97922,0,0,1,2-2h1V18a4,4,0,0,1,8,0v2h1a2.00135,2.00135,0,0,1,2,2v6A2.00135,2.00135,0,0,1,28,30ZM18,22v6H28V22Zm3-2h4V18a2,2,0,0,0-4,0Z" style="fill:#ef5350"/><path d="M13.126,27.82471,13.1,27.81l-1.31,1.31-.16.16,1.87,1.05a4.58309,4.58309,0,0,0,1.37.53,4.49224,4.49224,0,0,0,.54785.09637A11.01421,11.01421,0,0,1,13.126,27.82471Z" style="fill:#546e7a"/></svg>