<svg xmlns="http://www.w3.org/2000/svg" viewBox="0 0 32 32"><path d="M28.96692,12H9.44152a2,2,0,0,0-1.89737,1.36754L4,24V10H28a2,2,0,0,0-2-2H15.1241a2,2,0,0,1-1.28038-.46357L12.5563,6.46357A2,2,0,0,0,11.27592,6H4A2,2,0,0,0,2,8V24a2,2,0,0,0,2,2H26l4.80523-11.21213A2,2,0,0,0,28.96692,12Z" style="fill:#ef5350"/><path d="M19.5,22h-3a.5.5,0,0,1-.5-.5v-3a.5.5,0,0,1,.5-.5h3a.5.5,0,0,1,.5.5v3A.5.5,0,0,1,19.5,22ZM28,15.79289V14.20711a.5.5,0,0,0-.14645-.35356l-1.7071-1.7071A.5.5,0,0,0,25.79289,12H24.5a.5.5,0,0,0-.5.5v1a.5.5,0,0,0,.5.5h1a.5.5,0,0,1,.5.5v1.29289a.5.5,0,0,0,.14645.35356l1.7071,1.7071A.5.5,0,0,1,28,18.20711v3.58578a.5.5,0,0,1-.14645.35356l-1.7071,1.7071A.5.5,0,0,0,26,24.20711V25.5a.5.5,0,0,1-.5.5h-1a.5.5,0,0,0-.5.5v1a.5.5,0,0,0,.5.5h1.29289a.5.5,0,0,0,.35356-.14645l1.7071-1.7071A.5.5,0,0,0,28,25.79289V24.20711a.5.5,0,0,1,.14645-.35356l1.7071-1.7071A.5.5,0,0,0,30,21.79289V18.20711a.5.5,0,0,0-.14645-.35356l-1.7071-1.7071A.5.5,0,0,1,28,15.79289ZM24.5,18h1a.5.5,0,0,1,.5.5v3a.5.5,0,0,1-.5.5h-1a.5.5,0,0,0-.5.5v1.29289a.5.5,0,0,1-.14645.35356l-1.7071,1.7071A.5.5,0,0,1,21.79289,26H20.5a.5.5,0,0,1-.5-.5v-1a.5.5,0,0,1,.5-.5h1a.5.5,0,0,0,.5-.5V22.309a.5.5,0,0,1,.27639-.44722l1.44722-.7236A.5.5,0,0,0,24,20.691V19.309a.5.5,0,0,0-.27639-.44722l-1.44722-.7236A.5.5,0,0,1,22,17.691V16.5a.5.5,0,0,0-.5-.5h-1a.5.5,0,0,1-.5-.5v-1a.5.5,0,0,1,.5-.5h1.29289a.5.5,0,0,1,.35356.14645l1.7071,1.7071A.5.5,0,0,1,24,16.20711V17.5A.5.5,0,0,0,24.5,18Z" style="fill:#ffcdd2"/></svg>