<svg xmlns="http://www.w3.org/2000/svg" viewBox="0 0 32 32"><path d="M13.84376,7.53645l-1.28749-1.0729A2,2,0,0,0,11.27591,6H4A2,2,0,0,0,2,8V24a2,2,0,0,0,2,2H28a2,2,0,0,0,2-2V10a2,2,0,0,0-2-2H15.12412A2,2,0,0,1,13.84376,7.53645Z" style="fill:#009688"/><rect x="30" y="20" width="2" height="4" style="fill:#b2dfdb"/><rect x="12" y="20" width="2" height="4" style="fill:#b2dfdb"/><path d="M26,14V12H24v2H20V12H18v2a2,2,0,0,0-2,2V27a1,1,0,0,0,1,1H27a1,1,0,0,0,1-1V16A2,2,0,0,0,26,14Zm-6,2h4v2H20Zm6,8v2H24V24H20v2H18V22h8Z" style="fill:#b2dfdb"/></svg>