<svg xmlns="http://www.w3.org/2000/svg" viewBox="0 0 32 32"><path d="M28.96692,12H9.44152a2,2,0,0,0-1.89737,1.36754L4,24V10H28a2,2,0,0,0-2-2H15.1241a2,2,0,0,1-1.28038-.46357L12.5563,6.46357A2,2,0,0,0,11.27592,6H4A2,2,0,0,0,2,8V24a2,2,0,0,0,2,2H26l4.80523-11.21213A2,2,0,0,0,28.96692,12Z" style="fill:#ef5350"/><path d="M23,16a9.11031,9.11031,0,0,0-9,6,9.11031,9.11031,0,0,0,9,6,9.11031,9.11031,0,0,0,9-6A9.11031,9.11031,0,0,0,23,16Z" style="fill:#ffcdd2"/><path d="M23,26a4,4,0,1,1,4-4A4.00455,4.00455,0,0,1,23,26Z" style="fill:#ef5350"/><circle cx="23" cy="22" r="2" style="fill:#ffcdd2"/></svg>