<svg xmlns="http://www.w3.org/2000/svg" viewBox="0 0 32 32"><path d="M13.84376,7.53645l-1.28749-1.0729A2,2,0,0,0,11.27591,6H4A2,2,0,0,0,2,8V24a2,2,0,0,0,2,2H28a2,2,0,0,0,2-2V10a2,2,0,0,0-2-2H15.12412A2,2,0,0,1,13.84376,7.53645Z" style="fill:#00acc1"/><path d="M32,16v2a2,2,0,0,1-2,2H13.00037a.99992.99992,0,0,1-.707-1.707l6-6A.99989.99989,0,1,1,19.7074,13.707L17.41443,16Zm-.076,6.61719A.9997.9997,0,0,0,31.00012,22H12.00049v2a2,2,0,0,0,2,2H26.58606l-2.293,2.293A.99989.99989,0,0,0,25.70715,29.707l6-6A.99887.99887,0,0,0,31.924,22.61719Z" style="fill:#b2ebf2"/></svg>