<svg xmlns="http://www.w3.org/2000/svg" viewBox="0 0 32 32"><path d="M28.96692,12H9.44152a2,2,0,0,0-1.89737,1.36754L4,24V10H28a2,2,0,0,0-2-2H15.1241a2,2,0,0,1-1.28038-.46357L12.5563,6.46357A2,2,0,0,0,11.27592,6H4A2,2,0,0,0,2,8V24a2,2,0,0,0,2,2H26l4.80523-11.21213A2,2,0,0,0,28.96692,12Z" style="fill:#ef5350"/><path d="M23.00023,23.99971a2.95824,2.95824,0,0,1-2.999-2.91651,3,3,0,1,1,3.08215,2.91535q-.04153.00115-.0831.00116M29.876,21.873a7.00146,7.00146,0,0,0,.064-.874,8.0003,8.0003,0,0,0-.064-.9L31.827,18.632a.446.446,0,0,0,.113-.576l-1.85306-3.112a.46.46,0,0,0-.564-.199l-2.30208.9a6.80012,6.80012,0,0,0-1.565-.882l-.342-2.385a.464.464,0,0,0-.464-.378H21.14967a.464.464,0,0,0-.463.378l-.341,2.385a6.8004,6.8004,0,0,0-1.56305.881l-2.30407-.899a.46.46,0,0,0-.564.198l-1.85106,3.113a.436.436,0,0,0,.112.576L16.12552,20.1a8.00031,8.00031,0,0,0-.064.9,6.99874,6.99874,0,0,0,.064.873l-1.95006,1.493a.436.436,0,0,0-.112.576l1.85006,3.115a.47.47,0,0,0,.565.198l2.30407-.91a6.40022,6.40022,0,0,0,1.56305.892l.342,2.385a.464.464,0,0,0,.463.378h3.70012a.464.464,0,0,0,.464-.378l.34-2.385a6.80018,6.80018,0,0,0,1.566-.891l2.30208.909a.475.475,0,0,0,.566-.198L31.939,23.942a.446.446,0,0,0-.112-.576Z" style="fill:#ffcdd2"/></svg>