<svg xmlns="http://www.w3.org/2000/svg" xmlns:xlink="http://www.w3.org/1999/xlink" viewBox="0 0 32 32"><defs><linearGradient id="a" x1="4.08579" y1="5.08579" x2="26.91421" y2="27.91421" gradientUnits="userSpaceOnUse"><stop offset="0" stop-color="#5c6bc0"/><stop offset="1" stop-color="#7e57c2"/></linearGradient><linearGradient id="b" x1="18" y1="21" x2="29" y2="21" gradientUnits="userSpaceOnUse"><stop offset="0" stop-color="#fdd835"/><stop offset="1" stop-color="#ffab00"/></linearGradient></defs><path d="M13.84376,7.53645l-1.28749-1.0729A2,2,0,0,0,11.27591,6H4A2,2,0,0,0,2,8V24a2,2,0,0,0,2,2H28a2,2,0,0,0,2-2V10a2,2,0,0,0-2-2H15.12412A2,2,0,0,1,13.84376,7.53645Z" style="fill:url(#a)"/><path d="M18,12V22h4v8l7-10H26l2-8Z" style="fill:url(#b)"/></svg>