<svg xmlns="http://www.w3.org/2000/svg" viewBox="0 0 32 32"><path d="M28.96692,12H9.44152a2,2,0,0,0-1.89737,1.36754L4,24V10H28a2,2,0,0,0-2-2H15.1241a2,2,0,0,1-1.28038-.46357L12.5563,6.46357A2,2,0,0,0,11.27592,6H4A2,2,0,0,0,2,8V24a2,2,0,0,0,2,2H26l4.80523-11.21213A2,2,0,0,0,28.96692,12Z" style="fill:#0097a7"/><path d="M23,22c-4.9725,0-9,1.79-9,4v2H32V26c0-2.21-4.0275-4-9-4m-5-6c0,2.20914,2.23858,4,5,4s5-1.79086,5-4m2-2H16a1.64219,1.64219,0,0,1,1.64221-1.64221h.40161A4.99473,4.99473,0,0,1,20,9.02264V11.5a.5.5,0,0,0,.5.5h1a.5.5,0,0,0,.5-.5v-4a.5.5,0,0,1,.5-.5h1a.5.5,0,0,1,.5.5v4a.5.5,0,0,0,.5.5h1a.5.5,0,0,0,.5-.5V9.02258a4.99473,4.99473,0,0,1,1.95618,3.33521h.40161A1.64219,1.64219,0,0,1,30,14Z" style="fill:#b2ebf2"/></svg>