<svg xmlns="http://www.w3.org/2000/svg" viewBox="0 0 32 32"><path d="M28.96692,12H9.44152a2,2,0,0,0-1.89737,1.36754L4,24V10H28a2,2,0,0,0-2-2H15.1241a2,2,0,0,1-1.28038-.46357L12.5563,6.46357A2,2,0,0,0,11.27592,6H4A2,2,0,0,0,2,8V24a2,2,0,0,0,2,2H26l4.80523-11.21213A2,2,0,0,0,28.96692,12Z" style="fill:#546e7a"/><circle cx="22" cy="20" r="2" style="fill:#eceff1"/><path d="M22,13.76251A6.23749,6.23749,0,1,1,15.76245,20,6.24455,6.24455,0,0,1,22,13.76251m0-2.5A8.73749,8.73749,0,1,0,30.73755,20,8.74757,8.74757,0,0,0,22,11.26251Z" style="fill:#eceff1"/></svg>