<svg xmlns="http://www.w3.org/2000/svg" viewBox="0 0 32 32"><path d="M13.84376,7.53645l-1.28749-1.0729A2,2,0,0,0,11.27591,6H4A2,2,0,0,0,2,8V24a2,2,0,0,0,2,2H28a2,2,0,0,0,2-2V10a2,2,0,0,0-2-2H15.12412A2,2,0,0,1,13.84376,7.53645Z" style="fill:#0097a7"/><polygon points="30 28 30 26 30 24 26 24 24 24 24 28 20 28 20 22 24 22 24 14 26 14 26 12 22 12 22 6 20 6 20 12 18 12 18 6 16 6 16 12 12 12 12 14 14 14 14 22 18 22 18 30 20 30 24 30 26 30 26 26 28 26 28 30 30 30 32 30 32 28 30 28" style="fill:#b2ebf2"/></svg>