<svg xmlns="http://www.w3.org/2000/svg" viewBox="0 0 32 32"><path d="M28.96692,12H9.44152a2,2,0,0,0-1.89737,1.36754L4,24V10H28a2,2,0,0,0-2-2H15.1241a2,2,0,0,1-1.28038-.46357L12.5563,6.46357A2,2,0,0,0,11.27592,6H4A2,2,0,0,0,2,8V24a2,2,0,0,0,2,2H26l4.80523-11.21213A2,2,0,0,0,28.96692,12Z" style="fill:#42a5f5"/><path d="M28,15.5v-1a.5.5,0,0,1,.5-.5H32a3.99992,3.99992,0,0,0-4-4H22a3.99992,3.99992,0,0,0-4,4h3.5a.5.5,0,0,1,.5.5v1a.5.5,0,0,1-.5.5H18v2h3.5a.5.5,0,0,1,.5.5v1a.5.5,0,0,1-.5.5H18a4,4,0,0,0,4,4h2v2H20.5a.5.5,0,0,0-.5.5v1a.5.5,0,0,0,.5.5h9a.5.5,0,0,0,.5-.5v-1a.5.5,0,0,0-.5-.5H26V24h2a4,4,0,0,0,4-4H28.5a.5.5,0,0,1-.5-.5v-1a.5.5,0,0,1,.5-.5H32V16H28.5A.5.5,0,0,1,28,15.5Z" style="fill:#bbdefb"/></svg>