<svg xmlns="http://www.w3.org/2000/svg" viewBox="0 0 32 32"><path d="M13.84376,7.53645l-1.28749-1.0729A2,2,0,0,0,11.27591,6H4A2,2,0,0,0,2,8V24a2,2,0,0,0,2,2H28a2,2,0,0,0,2-2V10a2,2,0,0,0-2-2H15.12412A2,2,0,0,1,13.84376,7.53645Z" style="fill:#607d8b"/><polygon points="12 16 12 24 16 24 16 26 18 26 18 28 24 28 24 26 26 26 26 24 30 24 30 16 12 16" style="fill:#212121"/><path d="M20,26v2.46155C20,29.31122,20.13214,30,21,30s1-.68878,1-1.53845V26Z" style="fill:#f44336"/><path d="M30.34766,14.45691A4.99466,4.99466,0,0,0,26.92981,12a6.61912,6.61912,0,0,0-4.3584-2H19.42859a6.61861,6.61861,0,0,0-4.35913,2,4.99464,4.99464,0,0,0-3.41791,2.45691C10.56519,16.58453,9.99976,17.62134,10,20v1.2052A2.96961,2.96961,0,0,0,12,24V20h2v4a4,4,0,0,0,4,4V26a2,2,0,0,1-2-2V22h2v2h2V22h2v2h2V22h2v2a2,2,0,0,1-2,2v2a4,4,0,0,0,4-4V20h2v4a2.96961,2.96961,0,0,0,2-2.7948V20C32,17.62128,31.43427,16.58447,30.34766,14.45691ZM18,18H16V16h2Zm4,2H20V18h2Zm4-2H24V16h2Z" style="fill:#ffab40"/></svg>