<svg xmlns="http://www.w3.org/2000/svg" viewBox="0 0 32 32"><path d="M13.84376,7.53645l-1.28749-1.0729A2,2,0,0,0,11.27591,6H4A2,2,0,0,0,2,8V24a2,2,0,0,0,2,2H28a2,2,0,0,0,2-2V10a2,2,0,0,0-2-2H15.12412A2,2,0,0,1,13.84376,7.53645Z" style="fill:#26a69a"/><path d="M31.62006,12.22a1.04186,1.04186,0,0,0-.61988-.22H17.0025a1.04212,1.04212,0,0,0-.61993.22,1.00042,1.00042,0,0,0-.17,1.39978L22,21v5.86792a1.13678,1.13678,0,0,0,.29163.82989l2.00964,2.00971a.9957.9957,0,0,0,1.40979,0A1.09144,1.09144,0,0,0,26,28.87762V21l5.79-7.38025A1.00037,1.00037,0,0,0,31.62006,12.22Z" style="fill:#b2dfdb"/></svg>