<svg xmlns="http://www.w3.org/2000/svg" viewBox="0 0 32 32"><path d="M13.84376,7.53645l-1.28749-1.0729A2,2,0,0,0,11.27591,6H4A2,2,0,0,0,2,8V24a2,2,0,0,0,2,2H28a2,2,0,0,0,2-2V10a2,2,0,0,0-2-2H15.12412A2,2,0,0,1,13.84376,7.53645Z" style="fill:#ef5350"/><path d="M23,16a9.11031,9.11031,0,0,0-9,6,9.11031,9.11031,0,0,0,9,6,9.11031,9.11031,0,0,0,9-6A9.11031,9.11031,0,0,0,23,16Z" style="fill:#ffcdd2"/><path d="M23,26a4,4,0,1,1,4-4A4.00455,4.00455,0,0,1,23,26Z" style="fill:#ef5350"/><circle cx="23" cy="22" r="2" style="fill:#ffcdd2"/></svg>