<svg xmlns="http://www.w3.org/2000/svg" viewBox="0 0 32 32"><path d="M13.84376,7.53645l-1.28749-1.0729A2,2,0,0,0,11.27591,6H4A2,2,0,0,0,2,8V24a2,2,0,0,0,2,2H28a2,2,0,0,0,2-2V10a2,2,0,0,0-2-2H15.12412A2,2,0,0,1,13.84376,7.53645Z" style="fill:#1e88e5"/><path d="M18.98015,24.43525a6.78716,6.78716,0,0,1-6.36441-3.772,6.90237,6.90237,0,0,1,0-5.69947,8.60905,8.60905,0,0,1,4.06648-4.29536L18.01094,10l1.2941,2.7513-1.329.67357a5.60274,5.60274,0,0,0-2.6577,2.772,3.80316,3.80316,0,0,0-.03,3.10882c.95435,2.02072,3.707,2.6632,6.13992,1.43523l1.32871-.67359,1.29381,2.75133-1.3287.67355a8.48392,8.48392,0,0,1-3.72187.92746" style="fill:#bbdefb"/><path d="M26.16937,28l-1.35388-2.7254,1.31384-.6995c2.408-1.285,3.562-3.95856,2.5679-5.95854-.99438-2-3.75676-2.59069-6.16479-1.30055l-1.31384.6995-1.35388-2.7254,1.31384-.69947c3.85657-2.07255,8.40781-.88084,10.14635,2.62176s0,8.03109-3.84685,10.0881Z" style="fill:#bbdefb"/></svg>