<svg xmlns="http://www.w3.org/2000/svg" viewBox="0 0 32 32"><path d="M13.84376,7.53645l-1.28749-1.0729A2,2,0,0,0,11.27591,6H4A2,2,0,0,0,2,8V24a2,2,0,0,0,2,2H28a2,2,0,0,0,2-2V10a2,2,0,0,0-2-2H15.12412A2,2,0,0,1,13.84376,7.53645Z" style="fill:#00acc1"/><path d="M28,10H24V9a1,1,0,0,1,1-1h2a1,1,0,0,1,1,1Zm-6.5,2h-3a.5.5,0,0,0-.5.5v7a.5.5,0,0,0,.5.5h3a.5.5,0,0,0,.5-.5v-7A.5.5,0,0,0,21.5,12ZM15,8H13a1,1,0,0,0-1,1v1h4V9A1,1,0,0,0,15,8Zm-4,5v1.85971a5.46508,5.46508,0,0,1-1.61332,3.75545A5.00026,5.00026,0,0,0,8,22.071V28h6a2,2,0,0,0,2-2V12H12A1,1,0,0,0,11,13Zm19.61332,5.61516A5.46508,5.46508,0,0,1,29,14.85971V13a1,1,0,0,0-1-1H24V26a2,2,0,0,0,2,2h6V22.071A5.00026,5.00026,0,0,0,30.61332,18.61516Z" style="fill:#b2ebf2"/></svg>