<svg xmlns="http://www.w3.org/2000/svg" viewBox="0 0 32 32"><path d="M28.96692,12H9.44152a2,2,0,0,0-1.89737,1.36754L4,24V10H28a2,2,0,0,0-2-2H15.1241a2,2,0,0,1-1.28038-.46357L12.5563,6.46357A2,2,0,0,0,11.27592,6H4A2,2,0,0,0,2,8V24a2,2,0,0,0,2,2H26l4.80523-11.21213A2,2,0,0,0,28.96692,12Z" style="fill:#fb8c00"/><path d="M15.99963,20.10083V15.81616a3,3,0,1,1,2,.00025v4.28436a4.96755,4.96755,0,0,1,1.75452.73071l4.54565-4.54571a3.02911,3.02911,0,1,1,1.41407,1.41412l-4.54566,4.54553A4.9657,4.9657,0,0,1,21.89917,24h4.28455a3,3,0,1,1,0,2H21.89917a5.00011,5.00011,0,1,1-5.89954-5.89917Z" style="fill:#ffe0b2"/></svg>