<svg xmlns="http://www.w3.org/2000/svg" viewBox="0 0 32 32"><path d="M13.84376,7.53645l-1.28749-1.0729A2,2,0,0,0,11.27591,6H4A2,2,0,0,0,2,8V24a2,2,0,0,0,2,2H28a2,2,0,0,0,2-2V10a2,2,0,0,0-2-2H15.12412A2,2,0,0,1,13.84376,7.53645Z" style="fill:#fbc02d"/><polygon points="22 10 15.75 16.25 18.25 18.75 22 15 25.75 18.75 28.25 16.25 22 10" style="fill:#fff9c4"/><rect x="20.23223" y="18.23208" width="3.53553" height="3.53553" transform="translate(-7.69838 21.41417) rotate(-45)" style="fill:#fff9c4"/><rect x="27.73223" y="18.23208" width="3.53553" height="3.53553" transform="translate(-5.50168 26.71747) rotate(-45)" style="fill:#fff9c4"/><rect x="12.73223" y="18.23208" width="3.53553" height="3.53553" transform="translate(-9.89508 16.11087) rotate(-45)" style="fill:#fff9c4"/><polygon points="25.75 21.25 22 25 18.25 21.25 15.75 23.75 22 30 28.25 23.75 25.75 21.25" style="fill:#fff9c4"/></svg>