<svg xmlns="http://www.w3.org/2000/svg" viewBox="0 0 32 32"><path d="M28.96692,12H9.44152a2,2,0,0,0-1.89737,1.36754L4,24V10H28a2,2,0,0,0-2-2H15.1241a2,2,0,0,1-1.28038-.46357L12.5563,6.46357A2,2,0,0,0,11.27592,6H4A2,2,0,0,0,2,8V24a2,2,0,0,0,2,2H26l4.80523-11.21213A2,2,0,0,0,28.96692,12Z" style="fill:#5e35b1"/><polygon points="28 12 24 20 28 20 32 12 28 12" style="fill:#d1c4e9"/><path d="M23.99976,22A2,2,0,1,0,26,23.99994,2,2,0,0,0,23.99976,22Z" style="fill:#d1c4e9"/><polygon points="20 16 18 20 16 16 12 16 16 24 14 28 18 28 20 24 24 16 20 16" style="fill:#d1c4e9"/></svg>