<svg xmlns="http://www.w3.org/2000/svg" viewBox="0 0 32 32"><path d="M28.96692,12H9.44152a2,2,0,0,0-1.89737,1.36754L4,24V10H28a2,2,0,0,0-2-2H15.1241a2,2,0,0,1-1.28038-.46357L12.5563,6.46357A2,2,0,0,0,11.27592,6H4A2,2,0,0,0,2,8V24a2,2,0,0,0,2,2H26l4.80523-11.21213A2,2,0,0,0,28.96692,12Z" style="fill:#009688"/><path d="M30,10H16a2,2,0,0,0-2,2V25.975a2,2,0,0,0,2,2H30a2.00006,2.00006,0,0,0,2-2V12A2,2,0,0,0,30,10ZM16,12h6v2H16Zm0,4h6v2H16Zm0,4h6v2H16Zm0,6V24h6v2Zm14,0H24V24h6Zm0-4H24V20h6Zm0-4H24V16h6Zm0-4H24V12h6Z" style="fill:#b2dfdb"/></svg>