<svg xmlns="http://www.w3.org/2000/svg" viewBox="0 0 32 32"><path d="M13.84376,7.53645l-1.28749-1.0729A2,2,0,0,0,11.27591,6H4A2,2,0,0,0,2,8V24a2,2,0,0,0,2,2H28a2,2,0,0,0,2-2V10a2,2,0,0,0-2-2H15.12412A2,2,0,0,1,13.84376,7.53645Z" style="fill:#ab47bc"/><polygon points="28 20 32 17 28 14 16 14 16 20 28 20" style="fill:#e1bee7"/><path d="M10,15v4a1,1,0,0,0,1,1h3V14H11A1,1,0,0,0,10,15Z" style="fill:#e1bee7"/><polygon points="12 22 10 22 10 28 32 28 32 22 30 22 30 26 28 26 28 22 26 22 26 24 24 24 24 22 22 22 22 26 20 26 20 22 18 22 18 24 16 24 16 22 14 22 14 26 12 26 12 22" style="fill:#e1bee7"/></svg>