<svg xmlns="http://www.w3.org/2000/svg" viewBox="0 0 32 32"><path d="M28.96692,12H9.44152a2,2,0,0,0-1.89737,1.36754L4,24V10H28a2,2,0,0,0-2-2H15.1241a2,2,0,0,1-1.28038-.46357L12.5563,6.46357A2,2,0,0,0,11.27592,6H4A2,2,0,0,0,2,8V24a2,2,0,0,0,2,2H26l4.80523-11.21213A2,2,0,0,0,28.96692,12Z" style="fill:#e53935"/><path d="M30.98291,24.37256a10,10,0,1,0-17.96582,0L12,26h2.01367a9.97268,9.97268,0,0,0,15.97266,0H32ZM30,20a7.96555,7.96555,0,0,1-.3324,2.26813l-6.34314-10.149A8.00609,8.00609,0,0,1,30,20ZM15.60852,24,18,20.17358V24Zm9.033-6h-5.283L22,13.77356ZM20,20h4v4H20Zm6,.17358L28.39148,24H26ZM14,20a8.00609,8.00609,0,0,1,6.67554-7.88092l-6.34314,10.149A7.96555,7.96555,0,0,1,14,20Zm8,8a7.958,7.958,0,0,1-5.2738-2H27.2738A7.958,7.958,0,0,1,22,28Z" style="fill:#ffcdd2"/></svg>