<svg xmlns="http://www.w3.org/2000/svg" viewBox="0 0 32 32"><path d="M13.84376,7.53645l-1.28749-1.0729A2,2,0,0,0,11.27591,6H4A2,2,0,0,0,2,8V24a2,2,0,0,0,2,2H28a2,2,0,0,0,2-2V10a2,2,0,0,0-2-2H15.12412A2,2,0,0,1,13.84376,7.53645Z" style="fill:#757575"/><path d="M26.82812,14H24l-.00006.00018-.00006-.00006L22,16l-.00012-.00018-.82862.82861a1,1,0,0,0,1.41425,1.41418l1.72229-1.72229L27.78741,20h.00007l1.10632,1.10626L30,20h2V14Z" style="fill:#eee"/><path d="M27.47858,22.52142l.00091-.00091L24.3078,19.34875l-.30817.30817a3,3,0,1,1-4.24255-4.24274l.82855-.82855L20,14H12v6h2.00708l.81989.81989.19451-.19452a3,3,0,0,1,4.24262,0L23.092,24.45325a3.00338,3.00338,0,0,1-.00006,4.24255l-.19452.19452.05048.05048a1,1,0,0,0,1.41418,0l4.06079-4.06086a.99977.99977,0,0,0,0-1.41418Z" style="fill:#eee"/><path d="M17.84991,22.03955a1.00014,1.00014,0,0,0-1.41424,0l-1.41028,1.41028a1,1,0,0,0,0,1.41418l3.82782,3.82782a1,1,0,0,0,1.41425,0l1.41027-1.41021a1.00007,1.00007,0,0,0,0-1.41425Z" style="fill:#eee"/></svg>