<svg xmlns="http://www.w3.org/2000/svg" viewBox="0 0 32 32"><path d="M28.96692,12H9.44152a2,2,0,0,0-1.89737,1.36754L4,24V10H28a2,2,0,0,0-2-2H15.1241a2,2,0,0,1-1.28038-.46357L12.5563,6.46357A2,2,0,0,0,11.27592,6H4A2,2,0,0,0,2,8V24a2,2,0,0,0,2,2H26l4.80523-11.21213A2,2,0,0,0,28.96692,12Z" style="fill:#fb8c00"/><path d="M30,22H28.5a.5.5,0,0,0-.5.5V24h1.5a.5.5,0,0,1,.5.5v1a.5.5,0,0,1-.5.5H28v1.5a.5.5,0,0,0,.5.5h3a.5.5,0,0,0,.5-.5V24A2,2,0,0,0,30,22Z" style="fill:#ffe0b2"/><path d="M26,24V20a2,2,0,0,0-2-2H20a2,2,0,0,0-2,2H16a2,2,0,0,0-2,2v2H12a2,2,0,0,0-2,2v1.5a.5.5,0,0,0,.5.5h15a.5.5,0,0,0,.5-.5V26H16.5a.5.5,0,0,1-.5-.5v-1a.5.5,0,0,1,.5-.5Z" style="fill:#ffe0b2"/></svg>