<svg xmlns="http://www.w3.org/2000/svg" viewBox="0 0 32 32"><path d="M28.96692,12H9.44152a2,2,0,0,0-1.89737,1.36754L4,24V10H28a2,2,0,0,0-2-2H15.1241a2,2,0,0,1-1.28038-.46357L12.5563,6.46357A2,2,0,0,0,11.27592,6H4A2,2,0,0,0,2,8V24a2,2,0,0,0,2,2H26l4.80523-11.21213A2,2,0,0,0,28.96692,12Z" style="fill:#78909c"/><path d="M16.5,30h3a.5.5,0,0,0,.5-.5V28H31.5a.5.5,0,0,0,.5-.5v-1a.5.5,0,0,0-.5-.5H20V24H31.5a.5.5,0,0,0,.5-.5v-1a.5.5,0,0,0-.5-.5H20V20H31.5a.5.5,0,0,0,.5-.5v-1a.5.5,0,0,0-.5-.5H20V16H31.5a.5.5,0,0,0,.5-.5v-1a.5.5,0,0,0-.5-.5H20V12.5a.5.5,0,0,0-.5-.5h-3a.5.5,0,0,0-.5.5v17A.5.5,0,0,0,16.5,30Z" style="fill:#cfd8dc"/></svg>