<svg xmlns="http://www.w3.org/2000/svg" viewBox="0 0 32 32"><path d="M13.84376,7.53645l-1.28749-1.0729A2,2,0,0,0,11.27591,6H4A2,2,0,0,0,2,8V24a2,2,0,0,0,2,2H28a2,2,0,0,0,2-2V10a2,2,0,0,0-2-2H15.12412A2,2,0,0,1,13.84376,7.53645Z" style="fill:#5e35b1"/><polygon points="28 12 24 20 28 20 32 12 28 12" style="fill:#d1c4e9"/><path d="M23.99982,22A2,2,0,1,0,26,23.99994,2,2,0,0,0,23.99982,22Z" style="fill:#d1c4e9"/><polygon points="20 16 18 20 16 16 12 16 16 24 14 28 18 28 20 24 24 16 20 16" style="fill:#d1c4e9"/></svg>