<svg xmlns="http://www.w3.org/2000/svg" viewBox="0 0 32 32"><path d="M28.96692,12H9.44152a2,2,0,0,0-1.89737,1.36754L4,24V10H28a2,2,0,0,0-2-2H15.1241a2,2,0,0,1-1.28038-.46357L12.5563,6.46357A2,2,0,0,0,11.27592,6H4A2,2,0,0,0,2,8V24a2,2,0,0,0,2,2H26l4.80523-11.21213A2,2,0,0,0,28.96692,12Z" style="fill:#ffb300"/><polygon points="32 10 26 10 26 12 30 12 30 16 26 16 26 18 30 18 30 26 26 26 26 28 32 28 32 10" style="fill:#fff8e1"/><path d="M12,22v4q0,.811,2.344,1.406A23.24933,23.24933,0,0,0,20,28V24a23.38292,23.38292,0,0,1-5.656-.594Q12,22.81293,12,22Z" style="fill:#fff8e1"/><path d="M12,16v4q0,.811,2.344,1.406A23.24933,23.24933,0,0,0,20,22V18a23.38292,23.38292,0,0,1-5.656-.594Q12,16.81293,12,16Z" style="fill:#fff8e1"/><path d="M12,12v2q0,.811,2.344,1.406A23.24933,23.24933,0,0,0,20,16V10a23.38292,23.38292,0,0,0-5.656.594Q12,11.187,12,12Z" style="fill:#fff8e1"/><rect x="22" y="8" width="2" height="22" style="fill:#fff8e1"/></svg>