<svg xmlns="http://www.w3.org/2000/svg" viewBox="0 0 32 32"><path d="M13.84376,7.53645l-1.28749-1.0729A2,2,0,0,0,11.27591,6H4A2,2,0,0,0,2,8V24a2,2,0,0,0,2,2H28a2,2,0,0,0,2-2V10a2,2,0,0,0-2-2H15.12412A2,2,0,0,1,13.84376,7.53645Z" style="fill:#fb8c00"/><path d="M30,22H28.5a.5.5,0,0,0-.5.5V24h1.5a.5.5,0,0,1,.5.5v1a.5.5,0,0,1-.5.5H28v1.5a.5.5,0,0,0,.5.5h3a.5.5,0,0,0,.5-.5V24A2,2,0,0,0,30,22Z" style="fill:#ffe0b2"/><path d="M26,24V20a2,2,0,0,0-2-2H20a2,2,0,0,0-2,2H16a2,2,0,0,0-2,2v2H12a2,2,0,0,0-2,2v1.5a.5.5,0,0,0,.5.5h15a.5.5,0,0,0,.5-.5V26H16.5a.5.5,0,0,1-.5-.5v-1a.5.5,0,0,1,.5-.5Z" style="fill:#ffe0b2"/></svg>