<svg xmlns="http://www.w3.org/2000/svg" viewBox="0 0 32 32"><path d="M13.84376,7.53645l-1.28749-1.0729A2,2,0,0,0,11.27591,6H4A2,2,0,0,0,2,8V24a2,2,0,0,0,2,2H28a2,2,0,0,0,2-2V10a2,2,0,0,0-2-2H15.12412A2,2,0,0,1,13.84376,7.53645Z" style="fill:#78909c"/><rect x="22" y="18" width="10" height="4" style="fill:#cfd8dc"/><rect x="22" y="24" width="10" height="4" style="fill:#cfd8dc"/><rect x="22" y="12" width="10" height="4" style="fill:#cfd8dc"/><polygon points="14 18 8 18 8 22 14 22 14 26 20 20 14 14 14 18" style="fill:#cfd8dc"/></svg>