<svg xmlns="http://www.w3.org/2000/svg" viewBox="0 0 32 32"><path d="M28.96692,12H9.44152a2,2,0,0,0-1.89737,1.36754L4,24V10H28a2,2,0,0,0-2-2H15.1241a2,2,0,0,1-1.28038-.46357L12.5563,6.46357A2,2,0,0,0,11.27592,6H4A2,2,0,0,0,2,8V24a2,2,0,0,0,2,2H26l4.80523-11.21213A2,2,0,0,0,28.96692,12Z" style="fill:#0097a7"/><polygon points="30 28 30 26 30 24 26 24 24 24 24 28 20 28 20 22 24 22 24 14 26 14 26 12 22 12 22 6 20 6 20 12 18 12 18 6 16 6 16 12 12 12 12 14 14 14 14 22 18 22 18 30 20 30 24 30 26 30 26 26 28 26 28 30 30 30 32 30 32 28 30 28" style="fill:#b2ebf2"/></svg>