<svg xmlns="http://www.w3.org/2000/svg" viewBox="0 0 32 32"><path d="M28.96692,12H9.44152a2,2,0,0,0-1.89737,1.36754L4,24V10H28a2,2,0,0,0-2-2H15.1241a2,2,0,0,1-1.28038-.46357L12.5563,6.46357A2,2,0,0,0,11.27592,6H4A2,2,0,0,0,2,8V24a2,2,0,0,0,2,2H26l4.80523-11.21213A2,2,0,0,0,28.96692,12Z" style="fill:#f9a825"/><path d="M12,22a2,2,0,0,0-2-2,2,2,0,0,0,2-2V14h4V10H12a2,2,0,0,0-2,2v6H8v4H9.5a.5.5,0,0,1,.5.5V28a2,2,0,0,0,2,2h4V26H12Zm18-4V12a2,2,0,0,0-2-2H24v4h4v4a2,2,0,0,0,2,2,2,2,0,0,0-2,2v4H24v4h4a2,2,0,0,0,2-2V22h2V18Zm-8,5v2a1,1,0,0,1-1,1H19a1,1,0,0,1-1-1V23a1,1,0,0,1,1-1h2A1,1,0,0,1,22,23Zm0-8v2a1,1,0,0,1-1,1H19a1,1,0,0,1-1-1V15a1,1,0,0,1,1-1h2A1,1,0,0,1,22,15Z" style="fill:#fff8e1"/></svg>