<svg xmlns="http://www.w3.org/2000/svg" xmlns:xlink="http://www.w3.org/1999/xlink" viewBox="0 0 32 32"><defs><linearGradient id="a" x1="422.51008" y1="-452.59776" x2="439.82019" y2="-448.75107" gradientTransform="matrix(0.75, 0, 0, -0.75, -304.775, -319.25)" gradientUnits="userSpaceOnUse"><stop offset="0" stop-color="#e0e0e0" stop-opacity="0.2"/><stop offset="1" stop-color="#e0e0e0"/></linearGradient></defs><path d="M13.84376,7.6l-1.28749-1.0729a2,2,0,0,0-1.28036-.46355H4a2,2,0,0,0-2,2v16a2,2,0,0,0,2,2H28a2,2,0,0,0,2-2v-14a2,2,0,0,0-2-2H15.12412A2,2,0,0,1,13.84376,7.6Z" style="fill:#757575"/><path d="M23.42857,12,20.57143,24l-1.42857,6L32,16.28571Z" style="fill:#e0e0e0"/><path d="M12,19.71429,24.85714,6l-1.42857,6Z" style="fill:#e0e0e0"/><path d="M23.42857,12,12,19.71429,20.57143,24Z" style="fill:url(#a)"/></svg>