<svg xmlns="http://www.w3.org/2000/svg" xmlns:xlink="http://www.w3.org/1999/xlink" viewBox="0 0 32 32"><defs><linearGradient id="a" x1="435.84342" y1="-452.59776" x2="453.15352" y2="-448.75107" gradientTransform="matrix(0.75, 0, 0, -0.75, -314.775, -319.25)" gradientUnits="userSpaceOnUse"><stop offset="0" stop-color="#e0e0e0" stop-opacity="0.2"/><stop offset="1" stop-color="#e0e0e0"/></linearGradient></defs><path d="M28.96692,12H9.44152a2,2,0,0,0-1.89737,1.36754L4,24V10H28a2,2,0,0,0-2-2H15.1241a2,2,0,0,1-1.28038-.46357L12.5563,6.46357A2,2,0,0,0,11.27592,6H4A2,2,0,0,0,2,8V24a2,2,0,0,0,2,2H26l4.80523-11.21213A2,2,0,0,0,28.96692,12Z" style="fill:#757575"/><path d="M23.42857,12,20.57143,24l-1.42857,6L32,16.28571Z" style="fill:#e0e0e0"/><path d="M12,19.71429,24.85714,6l-1.42857,6Z" style="fill:#e0e0e0"/><path d="M23.42857,12,12,19.71429,20.57143,24Z" style="fill:url(#a)"/></svg>