<svg xmlns="http://www.w3.org/2000/svg" viewBox="0 0 32 32"><path d="M13.84376,7.53645l-1.28749-1.0729A2,2,0,0,0,11.27591,6H4A2,2,0,0,0,2,8V24a2,2,0,0,0,2,2H28a2,2,0,0,0,2-2V10a2,2,0,0,0-2-2H15.12412A2,2,0,0,1,13.84376,7.53645Z" style="fill:#ab47bc"/><path d="M14,17a1,1,0,0,1-1,1H12v1a1,1,0,0,1-2,0V18H9a1,1,0,0,1,0-2h1V15a1,1,0,0,1,2,0v1h1A1,1,0,0,1,14,17Zm5-5H18V11a1,1,0,0,0-2,0v1H15a1,1,0,0,0,0,2h1v1a1,1,0,0,0,2,0V14h1a1,1,0,0,0,0-2ZM12,22v3.90994a2,2,0,0,0,1.99,2l16,.08a2,2,0,0,0,2.01-2V16a2,2,0,0,0-2-2H22v2h8V26H14V22Zm14-4H16v2H26Zm2,4H16v2H28Z" style="fill:#e1bee7"/></svg>