<svg xmlns="http://www.w3.org/2000/svg" viewBox="0 0 32 32"><path d="M28.96692,12H9.44152a2,2,0,0,0-1.89737,1.36754L4,24V10H28a2,2,0,0,0-2-2H15.1241a2,2,0,0,1-1.28038-.46357L12.5563,6.46357A2,2,0,0,0,11.27592,6H4A2,2,0,0,0,2,8V24a2,2,0,0,0,2,2H26l4.80523-11.21213A2,2,0,0,0,28.96692,12Z" style="fill:#ab47bc"/><path d="M14,17a1,1,0,0,1-1,1H12v1a1,1,0,0,1-2,0V18H9a1,1,0,0,1,0-2h1V15a1,1,0,0,1,2,0v1h1A1,1,0,0,1,14,17Zm5-5H18V11a1,1,0,0,0-2,0v1H15a1,1,0,0,0,0,2h1v1a1,1,0,0,0,2,0V14h1a1,1,0,0,0,0-2ZM12,22v3.90994a2,2,0,0,0,1.99,2l16,.08a2,2,0,0,0,2.01-2V16a2,2,0,0,0-2-2H22v2h8V26H14V22Zm14-4H16v2H26Zm2,4H16v2H28Z" style="fill:#e1bee7"/></svg>