<svg xmlns="http://www.w3.org/2000/svg" viewBox="0 0 32 32"><path d="M30,14.51459V2H24V12.05048A10.94749,10.94749,0,0,1,30,14.51459ZM26,4h2V6H26Z" style="fill:#546e7a"/><path d="M2,30H8V2H2ZM4,4H6V6H4ZM4,26H6v2H4Z" style="fill:#546e7a"/><path d="M12.05048,24H10v6h4.51459A10.94749,10.94749,0,0,1,12.05048,24Z" style="fill:#546e7a"/><rect x="10" y="2" width="12" height="6" style="fill:#546e7a"/><path d="M22,12.05048V10H18l-8,8v4h2.05048A10.995,10.995,0,0,1,22,12.05048Z" style="fill:#546e7a"/><polygon points="10 10 10 14 14 10 10 10" style="fill:#546e7a"/><path d="M28,30H18a2.00135,2.00135,0,0,1-2-2V22a1.97922,1.97922,0,0,1,2-2h1V18a4,4,0,0,1,8,0v2h1a2.00135,2.00135,0,0,1,2,2v6A2.00135,2.00135,0,0,1,28,30ZM18,22v6H28V22Zm3-2h4V18a2,2,0,0,0-4,0Z" style="fill:#ef5350"/></svg>