<svg xmlns="http://www.w3.org/2000/svg" viewBox="0 0 32 32"><path d="M29.85577,16.08954,32,12.925l-3.16479-2.14466L29.605,7.036l-3.74377-.76965L25.139,2.512l-3.75391.72126L19.282.041,16.08954,2.14423,12.925,0,10.78033,3.16473,7.036,2.395,6.26636,6.13879,2.512,6.861l.72126,3.75391L.041,12.718,2.14423,15.9104,0,19.075,3.16479,21.2196,2.395,24.964l3.74377.76965L6.861,29.488l3.75391-.7212L12.718,31.959l3.19244-2.10327L19.075,32l2.14466-3.16479L24.964,29.605l.76965-3.74383L29.488,25.139l-.7212-3.75391L31.959,19.282ZM22.89429,5.91077a12.28428,12.28428,0,0,1,3.21734,3.22607l.06739.10223a12.14893,12.14893,0,0,1,1.78064,4.24518l.03082.16022a12.11873,12.11873,0,0,1-.006,4.7442l-.03437.16693a12.15067,12.15067,0,0,1-1.78808,4.2312l-.07141.10541a12.28467,12.28467,0,0,1-3.23627,3.22522l-.07587.05a12.14931,12.14931,0,0,1-4.283,1.79608l-.10546.02033a12.19977,12.19977,0,0,1-4.81153-.00611l-.0993-.02044A12.152,12.152,0,0,1,9.18146,26.1405l-.041-.02777A12.28695,12.28695,0,0,1,5.86584,22.829l-.00817-.01251A12.15326,12.15326,0,0,1,4.032,18.47266l-.0097-.05054A12.24483,12.24483,0,0,1,8.97913,5.99231l.13208-.087a12.213,12.213,0,0,1,9.2926-1.88665l.13977.02874a12.1495,12.1495,0,0,1,4.24426,1.79132ZM20,10v2a2,2,0,0,1-2,2V24H14V14a2,2,0,0,1-2-2V10a2,2,0,0,1,2-2v4h4V8A2,2,0,0,1,20,10Z" style="fill:#3f51b5"/></svg>