<svg xmlns="http://www.w3.org/2000/svg" viewBox="0 0 32 32"><path d="M29.85565,16.08948,32,12.92474l-3.16479-2.14441.77-3.74444-3.7445-.77-.72156-3.75415-3.75409.72162L19.28174.04108,16.08948,2.14435,12.92474,0,10.7804,3.16473l-3.74451-.77-.77,3.74444-3.75415.72162.72156,3.75409L.04108,12.7182l2.10327,3.19226L0,19.07526l3.16479,2.14441-.77,3.74444,3.74444.77.72162,3.75415,3.75415-.72156,2.10327,3.19226,3.19226-2.10327L19.07526,32l2.14441-3.16479,3.74444.77.77-3.7445,3.75409-.72156L28.76666,21.385l3.19226-2.10327ZM5.884,9.14532A12.18807,12.18807,0,0,1,9.08167,5.92474l.03576-.02362a12.21477,12.21477,0,0,1,9.46021-1.84643l.11267.02319a12.18474,12.18474,0,0,1,4.16351,1.80554l.001.00067a12.17644,12.17644,0,0,1,3.35833,3.4068l.066.10028a12.25967,12.25967,0,0,1,1.71753,8.93634l-.024.11707A12.13276,12.13276,0,0,1,27.53424,20H24a2.00591,2.00591,0,0,1-2-2,2,2,0,0,0-2-2,3.00017,3.00017,0,0,0,2.99579-3.16132A3.11454,3.11454,0,0,0,19.83026,10H5.36578c.16291-.28809.32892-.57513.51776-.85394ZM19,13a1,1,0,0,1-1,1H14V12h4A1,1,0,0,1,19,13Zm-14.9967.67236.024-.11682A12.14421,12.14421,0,0,1,4.46576,12H10v8H4.46771A12.24737,12.24737,0,0,1,4.0033,13.67236ZM26.116,22.85468a12.18733,12.18733,0,0,1-3.19739,3.22039l-.0365.024a12.21534,12.21534,0,0,1-9.46338,1.8454l-.10773-.02216a12.23545,12.23545,0,0,1-7.52429-5.21362L5.721,22.609c-.12732-.19824-.23871-.40454-.35388-.609H16V20H14V18h4c.81885.81885.29669,2.30811,1.17865,3.36987A1.88526,1.88526,0,0,0,20.63879,22h5.99543c-.16291.28809-.32892.57513-.51776.85394Z" style="fill:#9c27b0"/></svg>