<svg xmlns="http://www.w3.org/2000/svg" viewBox="0 0 32 32"><path d="M30,14.51459V2H24V12.05048A10.94749,10.94749,0,0,1,30,14.51459ZM26,4h2V6H26ZM2,30H8V2H2ZM4,4H6V6H4ZM4,26H6v2H4Zm10.51459,4H10V24h2.05048A10.94749,10.94749,0,0,0,14.51459,30ZM22,8H10V2H22ZM12.05048,22H10V18l8-8h4v2.05048A10.995,10.995,0,0,0,12.05048,22ZM14,10l-4,4V10Z" style="fill:#546e7a"/><path d="M28,30H18a2.00135,2.00135,0,0,1-2-2V22a1.97922,1.97922,0,0,1,2-2h1V18a4,4,0,0,1,8,0v2h1a2.00135,2.00135,0,0,1,2,2v6A2.00135,2.00135,0,0,1,28,30ZM18,22v6H28V22Zm3-2h4V18a2,2,0,0,0-4,0Z" style="fill:#ef5350"/></svg>