<svg xmlns="http://www.w3.org/2000/svg" viewBox="0 0 32 32"><path d="M24,6V4a2,2,0,0,0-2-2H6A2,2,0,0,0,4,4v6a2,2,0,0,0,2,2H22a2,2,0,0,0,2-2V8h2v8H13a1,1,0,0,0-1,1V29a1,1,0,0,0,1,1h4a1,1,0,0,0,1-1V18h9a1,1,0,0,0,1-1V7a1,1,0,0,0-1-1Z" style="fill:#8d6e63"/><rect x="14" y="28" width="2" height="2" style="fill:#d84315;opacity:0.4"/><path d="M12,28h2a0,0,0,0,1,0,0v2a0,0,0,0,1,0,0H13a1,1,0,0,1-1-1V28A0,0,0,0,1,12,28Z" style="fill:#d84315;opacity:0.2"/><rect x="12" y="26" width="2" height="2" style="fill:#ff8a65;opacity:0.30000000000000004"/><rect x="14" y="24" width="2" height="2" style="fill:#ffab40;opacity:0.2"/><path d="M6,2H6A0,0,0,0,1,6,2V4A0,0,0,0,1,6,4H4A0,0,0,0,1,4,4V4A2,2,0,0,1,6,2Z" style="fill:#f57c00;opacity:0.4"/><rect x="6" y="2" width="2" height="2" style="fill:#ffa726;opacity:0.30000000000000004"/><rect x="8" y="4" width="2" height="2" style="fill:#ffab40;opacity:0.30000000000000004"/><rect x="6" y="6" width="2" height="2" style="fill:#ffa726;opacity:0.30000000000000004"/><rect x="4" y="8" width="2" height="2" style="fill:#ff6e40;opacity:0.4"/><rect x="8" y="8" width="2" height="2" style="fill:#ff7043;opacity:0.7000000000000001"/><rect x="8" y="10" width="2" height="2" style="fill:#f57c00;opacity:0.30000000000000004"/><rect x="8" y="6" width="2" height="2" style="fill:#d84315;opacity:0.5"/><rect x="26" y="14" width="2" height="2" style="fill:#ff7043;opacity:0.30000000000000004"/><rect x="18" y="16" width="2" height="2" style="fill:#ff7043;opacity:0.30000000000000004"/><rect x="26" y="12" width="2" height="2" style="fill:#d84315;opacity:0.5"/><rect x="16" y="16" width="2" height="2" style="fill:#d84315;opacity:0.5"/><rect x="20" y="16" width="2" height="2" style="fill:#ffab40;opacity:0.30000000000000004"/><rect x="12" y="20" width="2" height="2" style="fill:#ff8a65;opacity:0.30000000000000004"/><rect x="14" y="20" width="2" height="2" style="fill:#ff6e40;opacity:0.2"/><rect x="12" y="18" width="2" height="2" style="fill:#ffab40;opacity:0.4"/><path d="M26,6h1a1,1,0,0,1,1,1V8a0,0,0,0,1,0,0H26a0,0,0,0,1,0,0V6A0,0,0,0,1,26,6Z" style="fill:#ffab40;opacity:0.4"/><rect x="14" y="4" width="2" height="2" style="fill:#d84315;opacity:0.4"/><rect x="16" y="2" width="2" height="2" style="fill:#ff8a65;opacity:0.30000000000000004"/><rect x="16" y="4" width="2" height="2" style="fill:#ffab40;opacity:0.4"/><rect x="18" y="2" width="2" height="2" style="fill:#ffab40;opacity:0.2"/><rect x="20" y="2" width="2" height="2" style="fill:#ff6e40;opacity:0.35000000000000003"/></svg>