<svg xmlns="http://www.w3.org/2000/svg" viewBox="0 0 32 32"><path d="M2,30H8V2H2ZM4,4H6V6H4ZM4,26H6v2H4Zm6-2H22v6H10ZM10,2H22V8H10ZM24,2V30h6V2Zm4,26H26V26h2ZM28,6H26V4h2ZM18,22l4-4v4ZM14,10l-4,4V10Zm4,0h4v4l-8,8H10V18Z" style="fill:#8d6e63"/><rect x="2" y="2" width="2" height="2" style="fill:#f57c00;opacity:0.4"/><rect x="4" y="2" width="2" height="2" style="fill:#ffa726;opacity:0.30000000000000004"/><rect x="6" y="4" width="2" height="2" style="fill:#ffab40;opacity:0.30000000000000004"/><rect x="4" y="6" width="2" height="2" style="fill:#ffa726;opacity:0.30000000000000004"/><rect x="24" y="26" width="2" height="2" style="fill:#ffa726;opacity:0.30000000000000004"/><rect x="2" y="8" width="2" height="2" style="fill:#ff6e40;opacity:0.4"/><rect x="26" y="28" width="2" height="2" style="fill:#ff6e40;opacity:0.4"/><rect x="6" y="8" width="2" height="2" style="fill:#ff7043;opacity:0.7000000000000001"/><rect x="28" y="28" width="2" height="2" style="fill:#ff7043;opacity:0.7000000000000001"/><rect x="6" y="10" width="2" height="2" style="fill:#f57c00;opacity:0.30000000000000004"/><rect x="6" y="6" width="2" height="2" style="fill:#d84315;opacity:0.5"/><rect x="28" y="26" width="2" height="2" style="fill:#d84315;opacity:0.5"/><rect x="24" y="14" width="2" height="2" style="fill:#ff7043;opacity:0.30000000000000004"/><rect x="26" y="16" width="2" height="2" style="fill:#f57c00;opacity:0.4"/><rect x="28" y="14" width="2" height="2" style="fill:#ff6e40;opacity:0.30000000000000004"/><rect x="24" y="12" width="2" height="2" style="fill:#d84315;opacity:0.5"/><rect x="24" y="16" width="2" height="2" style="fill:#ffab40;opacity:0.30000000000000004"/><rect x="20" y="24" width="2" height="2" style="fill:#d84315;opacity:0.4"/><rect x="12" y="26" width="2" height="2" style="fill:#ff8a65;opacity:0.30000000000000004"/><rect x="16" y="14" width="2" height="2" style="fill:#ff8a65;opacity:0.30000000000000004"/><rect x="10" y="20" width="2" height="2" style="fill:#ff8a65;opacity:0.30000000000000004"/><rect x="12" y="20" width="2" height="2" style="fill:#ff6e40;opacity:0.2"/><rect x="18" y="26" width="2" height="2" style="fill:#ffab40;opacity:0.4"/><rect x="12" y="28" width="2" height="2" style="fill:#ffab40;opacity:0.4"/><rect x="10" y="18" width="2" height="2" style="fill:#ffab40;opacity:0.4"/><rect x="18" y="12" width="2" height="2" style="fill:#ffab40;opacity:0.4"/><rect x="10" y="28" width="2" height="2" style="fill:#ff6e40;opacity:0.35000000000000003"/><rect x="12" y="4" width="2" height="2" style="fill:#d84315;opacity:0.4"/><rect x="14" y="2" width="2" height="2" style="fill:#ff8a65;opacity:0.30000000000000004"/><rect x="14" y="4" width="2" height="2" style="fill:#ffab40;opacity:0.4"/><rect x="16" y="2" width="2" height="2" style="fill:#ffab40;opacity:0.2"/><rect x="18" y="2" width="2" height="2" style="fill:#ff6e40;opacity:0.35000000000000003"/><rect x="2" y="26" width="2" height="2" style="fill:#d84315;opacity:0.4"/><rect x="4" y="28" width="2" height="2" style="fill:#d84315;opacity:0.2"/><rect x="4" y="24" width="2" height="2" style="fill:#ff8a65;opacity:0.30000000000000004"/><rect x="6" y="26" width="2" height="2" style="fill:#ff6e40;opacity:0.2"/><rect x="6" y="24" width="2" height="2" style="fill:#ffab40;opacity:0.2"/><rect x="6" y="22" width="2" height="2" style="fill:#ff6e40;opacity:0.35000000000000003"/></svg>