<svg xmlns="http://www.w3.org/2000/svg" viewBox="0 0 32 32"><path d="M16,2c-3.32769,1.37756-6.11213,7.62914-5.99654,14,.05035,2.775.65092,3.57266,1.99648,6h8.00012c1.34556-2.42734,1.94613-3.225,1.99648-6C22.11213,9.62914,19.32769,3.37756,16,2Zm0,10a2,2,0,1,1,2-2A2,2,0,0,1,16,12ZM2,22l6-2v4L2,26Zm22-2,6,2v4l-6-2ZM16,30h0a4,4,0,0,1-4-4h8A4,4,0,0,1,16,30Z" style="fill:#8d6e63"/><rect x="4" y="22" width="2" height="2" style="fill:#ffab40;opacity:0.30000000000000004"/><rect x="16" y="26" width="2" height="2" style="fill:#ffa726;opacity:0.30000000000000004"/><rect x="14" y="26" width="2" height="2" style="fill:#ff7043;opacity:0.7000000000000001"/><rect x="2" y="22" width="2" height="2" style="fill:#f57c00;opacity:0.30000000000000004"/><rect x="28" y="22" width="2" height="2" style="fill:#d84315;opacity:0.4"/><rect x="26" y="22" width="2" height="2" style="fill:#ff6e40;opacity:0.2"/><rect x="16" y="4" width="2" height="2" style="fill:#ffab40;opacity:0.4"/><rect x="14" y="4" width="2" height="2" style="fill:#ff6e40;opacity:0.35000000000000003"/><rect x="16" y="20" width="2" height="2" style="fill:#d84315;opacity:0.4"/><rect x="14" y="20" width="2" height="2" style="fill:#d84315;opacity:0.2"/><rect x="14" y="18" width="2" height="2" style="fill:#ff8a65;opacity:0.30000000000000004"/><rect x="18" y="16" width="2" height="2" style="fill:#ff6e40;opacity:0.2"/><rect x="16" y="18" width="2" height="2" style="fill:#ffab40;opacity:0.2"/><rect x="12" y="12" width="2" height="2" style="fill:#ff6e40;opacity:0.35000000000000003"/><path d="M18,28H16v2a3.95885,3.95885,0,0,0,2-.55481Z" style="fill:#d84315;opacity:0.5"/><polygon points="28 25.333 30 26 30 24 28 24 28 25.333" style="fill:#ffab40;opacity:0.4"/><path d="M21.93268,14q-.07554-1.0145-.24005-2H20v2Z" style="fill:#ff8a65;opacity:0.30000000000000004"/><path d="M21.69263,12c-.11316-.683-.25342-1.35193-.42334-2H20v2Z" style="fill:#ffab40;opacity:0.4"/><path d="M18,4V3.47913A5.91378,5.91378,0,0,0,16,2V4Z" style="fill:#ff8a65;opacity:0.30000000000000004"/><path d="M12,14V12H10.30737q-.16305.98428-.24005,2Z" style="fill:#ff7043;opacity:0.30000000000000004"/><path d="M11.99944,14H10.06676c-.04932.66217-.076,1.32965-.06384,2h1.99652Z" style="fill:#ffab40;opacity:0.30000000000000004"/><path d="M12,12V10H10.73071c-.16992.64807-.31018,1.317-.42334,2Z" style="fill:#d84315;opacity:0.5"/></svg>