<svg xmlns="http://www.w3.org/2000/svg" viewBox="0 0 32 32"><path d="M29.85577,16.08954,32,12.925l-3.16479-2.14466L29.605,7.036l-3.74377-.76965L25.139,2.512l-3.75391.72126L19.282.041,16.08954,2.14423,12.925,0,10.78033,3.16473,7.036,2.395,6.26636,6.13879,2.512,6.861l.72126,3.75391L.041,12.718,2.14423,15.9104,0,19.075,3.16479,21.2196,2.395,24.964l3.74377.76965L6.861,29.488l3.75391-.7212L12.718,31.959l3.19244-2.10327L19.075,32l2.14466-3.16479L24.964,29.605l.76965-3.74383L29.488,25.139l-.7212-3.75391L31.959,19.282ZM22.89429,5.91077a12.28428,12.28428,0,0,1,3.21734,3.22607l.06739.10223a12.14893,12.14893,0,0,1,1.78064,4.24518l.03082.16022a12.11873,12.11873,0,0,1-.006,4.7442l-.03437.16693a12.08347,12.08347,0,0,1-.41168,1.445H24a2.00587,2.00587,0,0,1-2-2,2,2,0,0,0-2-2,3.00017,3.00017,0,0,0,3.00012-3.00018q0-.08057-.00433-.16114a3.1146,3.1146,0,0,0-3.16553-2.83868H5.35809c.16394-.29089.33741-.577.5257-.855A12.1502,12.1502,0,0,1,8.97913,5.99231l.13208-.087a12.213,12.213,0,0,1,9.2926-1.88665l.13977.02874a12.1495,12.1495,0,0,1,4.24426,1.79132Zm3.19635,16.98144a12.28467,12.28467,0,0,1-3.23627,3.22522l-.07587.05a12.14931,12.14931,0,0,1-4.283,1.79608l-.10546.02033a12.19977,12.19977,0,0,1-4.81153-.00611l-.0993-.02044A12.152,12.152,0,0,1,9.18146,26.1405l-.041-.02777A12.28695,12.28695,0,0,1,5.86584,22.829l-.00817-.01251c-.17737-.26343-.338-.53851-.49482-.81592H16v-2H14v-2h4c.81885.81885.29669,2.30811,1.17865,3.36987a1.88526,1.88526,0,0,0,1.46014.63013H26.6405c-.1513.26758-.3081.53168-.47845.78619ZM3.7807,15.99a12.21244,12.21244,0,0,1,.68176-3.98938H10v8H4.46454a12.088,12.088,0,0,1-.4325-1.528l-.0097-.05054A12.27182,12.27182,0,0,1,3.7807,15.99ZM14,14.00061v-2h4a1,1,0,0,1,0,2Z" style="fill:#64b5f6"/></svg>