<svg xmlns="http://www.w3.org/2000/svg" viewBox="0 0 32 32"><path d="M28.96692,12H9.44152a2,2,0,0,0-1.89737,1.36754L4,24V10H28a2,2,0,0,0-2-2H15.1241a2,2,0,0,1-1.28038-.46357L12.5563,6.46357A2,2,0,0,0,11.27592,6H4A2,2,0,0,0,2,8V24a2,2,0,0,0,2,2H26l4.80523-11.21213A2,2,0,0,0,28.96692,12Z" style="fill:#78909c"/><rect x="28" y="26" width="4" height="4" rx="1" style="fill:#cfd8dc"/><rect x="28" y="14" width="4" height="10" rx="1" style="fill:#cfd8dc"/><path d="M20,16.5V18H18V16.5a.5.5,0,0,0-.5-.5H15a1,1,0,0,0-1,1V27.5a.5.5,0,0,0,.5.5h1a.5.5,0,0,0,.5-.5V20h2v3.5a.5.5,0,0,0,.5.5h1a.5.5,0,0,0,.5-.5V20h2v7.5a.5.5,0,0,0,.5.5h1a.5.5,0,0,0,.5-.5V17a1,1,0,0,0-1-1H20.5A.5.5,0,0,0,20,16.5Z" style="fill:#cfd8dc"/></svg>