<svg xmlns="http://www.w3.org/2000/svg" viewBox="0 0 32 32"><path d="M13.84376,7.53645l-1.28749-1.0729A2,2,0,0,0,11.27591,6H4A2,2,0,0,0,2,8V24a2,2,0,0,0,2,2H28a2,2,0,0,0,2-2V10a2,2,0,0,0-2-2H15.12412A2,2,0,0,1,13.84376,7.53645Z" style="fill:#78909c"/><rect x="28" y="26" width="4" height="4" rx="1" style="fill:#cfd8dc"/><rect x="28" y="14" width="4" height="10" rx="1" style="fill:#cfd8dc"/><path d="M20,16.5V18H18V16.5a.5.5,0,0,0-.5-.5H15a1,1,0,0,0-1,1V27.5a.5.5,0,0,0,.5.5h1a.5.5,0,0,0,.5-.5V20h2v3.5a.5.5,0,0,0,.5.5h1a.5.5,0,0,0,.5-.5V20h2v7.5a.5.5,0,0,0,.5.5h1a.5.5,0,0,0,.5-.5V17a1,1,0,0,0-1-1H20.5A.5.5,0,0,0,20,16.5Z" style="fill:#cfd8dc"/></svg>