<svg xmlns="http://www.w3.org/2000/svg" viewBox="0 0 32 32"><path d="M28,18v2H26.66229l-2.51343-1.8a.2933.2933,0,0,1-.13305-.2ZM9.71069,6l3.77167,1.969A.28691.28691,0,0,0,13.61945,8h.01129a.28661.28661,0,0,0,.136-.0412l2.075-1.27942a.29984.29984,0,0,1,.30884-.0036L18.41309,8h7.919L22.91486,6Zm9.78687-2-3.347-1.95892a.29991.29991,0,0,0-.3031,0L12.50037,4Zm2.33276,6,2.02124,1.183A.30005.30005,0,0,1,24,11.44189V12h4V10ZM24,14v2h4V14ZM10.171,22H4v.848a.29977.29977,0,0,0,.14838.25879L5.67352,24h7.91626ZM9.08856,26l3.4151,2H19.5144l3.43329-2Zm3.87976-10H18V14.29272a.3.3,0,0,0-.16479-.26782L17.78589,14H8.94482Zm5.44257,8h7.57672a.28691.28691,0,0,0-.10919-.19165L23.42365,22h-1.5929ZM4,18v2H8V18ZM5.7713,8h0ZM4,10v2h9.82361L9.86139,10Zm0,4v2H8V14Z" style="fill:#2196f3"/></svg>