<svg xmlns="http://www.w3.org/2000/svg" viewBox="0 0 32 32"><path d="M22.87927,21.599a.3029.3029,0,0,0-.3327-.01764l-6.39508,3.74a.3.3,0,0,1-.303,0l-7.7-4.50452A.30005.30005,0,0,1,8,20.55786V13.853a.2.2,0,0,1,.28412-.18146L17.562,18.28339A.31073.31073,0,0,0,18,17.99994V14.29272a.3.3,0,0,0-.16479-.26782L5.99756,8.04968a.46694.46694,0,0,0-.44788.01483L4.148,8.89288A.30145.30145,0,0,0,4,9.15234V22.848a.29977.29977,0,0,0,.14838.25879l11.70007,6.85205a.30014.30014,0,0,0,.30267.00037l9.70044-5.65082a.29959.29959,0,0,0,.02686-.50006Z" style="fill:#e0e0e0"/><path d="M27.85156,8.88928l-11.701-6.8482a.29991.29991,0,0,0-.3031,0L9.691,5.64423a.2.2,0,0,0,.00848.34991L13.48236,7.969a.28792.28792,0,0,0,.28436-.01019l2.075-1.27942a.29984.29984,0,0,1,.30884-.0036l7.701,4.5072A.30005.30005,0,0,1,24,11.44189V17.9408a.30008.30008,0,0,0,.14886.25915l3.4,2.43494A.3.3,0,0,0,28,20.37579V9.14819A.3.3,0,0,0,27.85156,8.88928Z" style="fill:#e0e0e0"/></svg>