<svg xmlns="http://www.w3.org/2000/svg" viewBox="0 0 32 32"><path d="M28.96692,12H9.44152a2,2,0,0,0-1.89737,1.36754L4,24V10H28a2,2,0,0,0-2-2H15.1241a2,2,0,0,1-1.28038-.46357L12.5563,6.46357A2,2,0,0,0,11.27592,6H4A2,2,0,0,0,2,8V24a2,2,0,0,0,2,2H26l4.80523-11.21213A2,2,0,0,0,28.96692,12Z" style="fill:#ef5350"/><path d="M31,10H25a1,1,0,0,0-1,1v5H13a1,1,0,0,0-1,1V29a1,1,0,0,0,1,1h6a1,1,0,0,0,1-1V24H31a1,1,0,0,0,1-1V11A1,1,0,0,0,31,10ZM17.97113,27.97107h-3.9422v-3.9422h3.9422Zm0-6h-3.9422v-3.9422h3.9422Zm6,0h-3.9422v-3.9422h3.9422Zm6,0h-3.9422v-3.9422h3.9422Zm0-6h-3.9422v-3.9422h3.9422Z" style="fill:#ffcdd2"/></svg>