<svg xmlns="http://www.w3.org/2000/svg" viewBox="0 0 32 32"><path d="M28.96692,12H9.44152a2,2,0,0,0-1.89737,1.36754L4,24V10H28a2,2,0,0,0-2-2H15.1241a2,2,0,0,1-1.28038-.46357L12.5563,6.46357A2,2,0,0,0,11.27592,6H4A2,2,0,0,0,2,8V24a2,2,0,0,0,2,2H26l4.80523-11.21213A2,2,0,0,0,28.96692,12Z" style="fill:#5c6bc0"/><path d="M30,28H18a2,2,0,0,1-2-2V20a2,2,0,0,1,2-2H30a2,2,0,0,1,2,2v6A2,2,0,0,1,30,28Zm0-13h0a1,1,0,0,0-1-1H19a1,1,0,0,0-1,1h0a1,1,0,0,0,1,1H29A1,1,0,0,0,30,15Zm-2-4h0a1,1,0,0,0-1-1H21a1,1,0,0,0-1,1h0a1,1,0,0,0,1,1h6A1,1,0,0,0,28,11Z" style="fill:#c5cae9"/></svg>