<svg xmlns="http://www.w3.org/2000/svg" viewBox="0 0 32 32"><path d="M13.84376,7.6l-1.28749-1.0729a2,2,0,0,0-1.28036-.46355H4a2,2,0,0,0-2,2v16a2,2,0,0,0,2,2H28a2,2,0,0,0,2-2v-14a2,2,0,0,0-2-2H15.12412A2,2,0,0,1,13.84376,7.6Z" style="fill:#ef5350"/><path d="M31,10H25a1,1,0,0,0-1,1v5H13a1,1,0,0,0-1,1V29a1,1,0,0,0,1,1h6a1,1,0,0,0,1-1V24H31a1,1,0,0,0,1-1V11A1,1,0,0,0,31,10ZM17.97113,27.97107h-3.9422v-3.9422h3.9422Zm0-6h-3.9422v-3.9422h3.9422Zm6,0h-3.9422v-3.9422h3.9422Zm6,0h-3.9422v-3.9422h3.9422Zm0-6h-3.9422v-3.9422h3.9422Z" style="fill:#ffcdd2"/></svg>