<svg xmlns="http://www.w3.org/2000/svg" viewBox="0 0 32 32"><path d="M13.84376,7.6l-1.28749-1.0729a2,2,0,0,0-1.28036-.46355H4a2,2,0,0,0-2,2v16a2,2,0,0,0,2,2H28a2,2,0,0,0,2-2v-14a2,2,0,0,0-2-2H15.12412A2,2,0,0,1,13.84376,7.6Z" style="fill:#757575"/><path d="M22.19471,27.949a.39582.39582,0,0,1-.38962-.00044l-7.75328-4.39319A.10234.10234,0,0,1,14,23.4663V14.66913a.34233.34233,0,0,1,.17216-.29725l.85123-.48674a.34.34,0,0,1,.31808-.01038l7.99184,3.903v2.5018a.20833.20833,0,0,1-.292.19135l-6.89219-3.20332A.1064.1064,0,0,0,16,17.36529v4.0024a.29814.29814,0,0,0,.14669.257l5.6867,3.34718a.33086.33086,0,0,0,.3309.00283l4.28115-2.4224a.06077.06077,0,0,1,.06523.00341L28.83043,24.209ZM30,14.4676l-7.79308-4.41288a.42135.42135,0,0,0-.41522,0l-3.89326,2.20459a.19221.19221,0,0,0,.00806.33882l2.418,1.22132a.191.191,0,0,0,.18394-.00645l1.27469-.76045a.42134.42134,0,0,1,.43262.00051l5.66209,3.39618A.25148.25148,0,0,1,28,16.66492v4.06721a.25149.25149,0,0,0,.11309.21l1.58613,1.04554A.20009.20009,0,0,0,30,21.82053Z" style="fill:#e0e0e0"/></svg>