<svg xmlns="http://www.w3.org/2000/svg" viewBox="0 0 32 32"><path d="M13.84376,7.6l-1.28749-1.0729a2,2,0,0,0-1.28036-.46355H4a2,2,0,0,0-2,2v16a2,2,0,0,0,2,2H28a2,2,0,0,0,2-2v-14a2,2,0,0,0-2-2H15.12412A2,2,0,0,1,13.84376,7.6Z" style="fill:#5c6bc0"/><path d="M30,28H18a2,2,0,0,1-2-2V20a2,2,0,0,1,2-2H30a2,2,0,0,1,2,2v6A2,2,0,0,1,30,28Zm0-13h0a1,1,0,0,0-1-1H19a1,1,0,0,0-1,1h0a1,1,0,0,0,1,1H29A1,1,0,0,0,30,15Zm-2-4h0a1,1,0,0,0-1-1H21a1,1,0,0,0-1,1h0a1,1,0,0,0,1,1h6A1,1,0,0,0,28,11Z" style="fill:#c5cae9"/></svg>