<svg xmlns="http://www.w3.org/2000/svg" viewBox="0 0 32 32"><path d="M28.96692,12H9.44152a2,2,0,0,0-1.89737,1.36754L4,24V10H28a2,2,0,0,0-2-2H15.1241a2,2,0,0,1-1.28038-.46357L12.5563,6.46357A2,2,0,0,0,11.27592,6H4A2,2,0,0,0,2,8V24a2,2,0,0,0,2,2H26l4.80523-11.21213A2,2,0,0,0,28.96692,12Z" style="fill:#ff9800"/><path d="M22,12V26h4v2H16V26h4V12H16V10H26v2Zm4,2v2h4v6H26v2l5.01042-.05219a1,1,0,0,0,.98958-1V15a1,1,0,0,0-1-1ZM16,24V22H12V16h4V14l-5.01042.05219a1,1,0,0,0-.98958,1V23a1,1,0,0,0,1,1Z" style="fill:#ffe0b2"/></svg>