<svg xmlns="http://www.w3.org/2000/svg" viewBox="0 0 32 32"><path d="M23.917,10.42131c-.32494.51944-.62362,1.05761-.97945,1.555a13.71724,13.71724,0,0,1-5.40165,4.3706c-1.47508.70262-3.01442,1.2701-4.51962,1.91069a12.89136,12.89136,0,0,0-1.80569.84436,7.71184,7.71184,0,0,0-3.14288,4.17522c-.12974.368-.2176.75073-.32476,1.12667.06856.00463.08946-.00418.10427-.019a6.06866,6.06866,0,0,1,2.48095-1.47166c1.09092-.35235,2.19613-.6621,3.30074-.97034a25.17534,25.17534,0,0,0,4.359-1.5056,9.38839,9.38839,0,0,0,3.63791-3.01541,12.51794,12.51794,0,0,0,2.0062-4.82072c.14583-.72076.231-1.45376.34367-2.1812Z" style="fill:#ffc107"/><path d="M24.92716,8.53538c-.05747-.34664-.08986-.69994-.18-1.03791a5.5262,5.5262,0,0,0-.344-.85912c-.02558-.05586-.12957-.07595-.1974-.11253-.02861.05317-.0783.10465-.08277.15977a9.18163,9.18163,0,0,1-1.81113,4.65693,11.85862,11.85862,0,0,1-4.37771,3.581,23.06244,23.06244,0,0,1-3.52508,1.40457c-.29861.0956-.411.00852-.36642-.27636a21.21437,21.21437,0,0,1,1.77174-5.90845,15.15838,15.15838,0,0,1,5.26432-6.096,19.81694,19.81694,0,0,1,3.56663-1.93649c.4914-.20348.58539-.15381.67208.37948a14.90826,14.90826,0,0,1,.11247,3.78547c-.06143.65927-.21231,1.31056-.3318,1.96382a1.52532,1.52532,0,0,1-.1306.31011ZM6.55614,30a1.17923,1.17923,0,0,0,.2-.09839,19.84589,19.84589,0,0,1,3.67061-2.10923,25.47787,25.47787,0,0,0,3.90458-2.15244,12.68651,12.68651,0,0,0,3.52949-3.491c.06356-.09782.11806-.20149.17539-.30005-.50477.23755-.98348.49041-1.48341.69042-.50713.20289-1.03063.36908-1.5551.52385-1.04308.30782-2.10249.5638-3.136.89994a7.4767,7.4767,0,0,0-5.23127,5.36111c-.0577.209-.08763.4256-.13046.63867Zm8.41222-19.61387c-.39623.14363-.80055.26976-1.18488.44052a6.13629,6.13629,0,0,0-3.1303,2.73317A18.813,18.813,0,0,0,9.37444,16.5527a2.05011,2.05011,0,0,0-.03541.491,2.26438,2.26438,0,0,0,.48642-.06833c.92317-.34054,1.83461-.71381,2.76352-1.03736a.95309.95309,0,0,0,.7375-.834,1.29631,1.29631,0,0,1,.03656-.15059A16.13412,16.13412,0,0,1,15.04454,10.675c.05752-.0998.106-.20479.18008-.349A2.56046,2.56046,0,0,0,14.96836,10.38613ZM23.053,16.826a10.50285,10.50285,0,0,1-3.48633,4.01268.64686.64686,0,0,0-.27134.70122q.24093,1.43287.504,2.862a1.91347,1.91347,0,0,0,.16382.38789,1.46235,1.46235,0,0,0,.38937-.22048c.56979-.62137,1.13442-1.24817,1.67925-1.89132a10.301,10.301,0,0,0,.65-.926,4.281,4.281,0,0,0,.71672-2.097,10.787,10.787,0,0,0-.23429-3.01465C23.10948,16.73125,23.07848,16.77717,23.053,16.826Z" style="fill:#2979ff"/></svg>