<svg xmlns="http://www.w3.org/2000/svg" viewBox="0 0 32 32"><path d="M16,4a6,6,0,0,0-6,6V28h4V20.15125A5.98652,5.98652,0,0,0,22,14.5V10A6,6,0,0,0,16,4Zm2,10.5a2,2,0,0,1-4,0V10a2,2,0,0,1,4,0Z" style="fill:#9575cd"/><path d="M29.5,2h-5a.5.5,0,0,0-.5.5v1a.5.5,0,0,0,.5.5H26V28H24.5a.5.5,0,0,0-.5.5v1a.5.5,0,0,0,.5.5h5a.5.5,0,0,0,.5-.5V2.5A.5.5,0,0,0,29.5,2Z" style="fill:#9575cd"/><path d="M7.5,4A.5.5,0,0,0,8,3.5v-1A.5.5,0,0,0,7.5,2h-5a.5.5,0,0,0-.5.5v27a.5.5,0,0,0,.5.5h5a.5.5,0,0,0,.5-.5v-1a.5.5,0,0,0-.5-.5H6V4Z" style="fill:#9575cd"/></svg>