<svg xmlns="http://www.w3.org/2000/svg" viewBox="0 0 32 32"><path d="M28.96692,12H9.44152a2,2,0,0,0-1.89737,1.36754L4,24V10H28a2,2,0,0,0-2-2H15.1241a2,2,0,0,1-1.28038-.46357L12.5563,6.46357A2,2,0,0,0,11.27592,6H4A2,2,0,0,0,2,8V24a2,2,0,0,0,2,2H26l4.80523-11.21213A2,2,0,0,0,28.96692,12Z" style="fill:#9575cd"/><rect x="28" y="14" width="4" height="10" style="fill:#d1c4e9"/><rect x="10" y="14" width="4" height="10" style="fill:#d1c4e9"/><path d="M21,10a5,5,0,0,0-5,5V28h4V21.89923A5.00112,5.00112,0,0,0,26,17V15A5,5,0,0,0,21,10Zm1,7a1,1,0,0,1-2,0V15a1,1,0,0,1,2,0Z" style="fill:#d1c4e9"/></svg>