<svg xmlns="http://www.w3.org/2000/svg" viewBox="0 0 32 32"><path d="M13.84376,7.53645l-1.28749-1.0729A2,2,0,0,0,11.27591,6H4A2,2,0,0,0,2,8V24a2,2,0,0,0,2,2H28a2,2,0,0,0,2-2V10a2,2,0,0,0-2-2H15.12412A2,2,0,0,1,13.84376,7.53645Z" style="fill:#9575cd"/><rect x="28" y="14" width="4" height="10" style="fill:#d1c4e9"/><rect x="10" y="14" width="4" height="10" style="fill:#d1c4e9"/><path d="M21,10a5,5,0,0,0-5,5V28h4V21.89923A5.00112,5.00112,0,0,0,26,17V15A5,5,0,0,0,21,10Zm1,7a1,1,0,0,1-2,0V15a1,1,0,0,1,2,0Z" style="fill:#d1c4e9"/></svg>