<svg xmlns="http://www.w3.org/2000/svg" viewBox="0 0 32 32"><path d="M28.96692,12H9.44152a2,2,0,0,0-1.89737,1.36754L4,24V10H28a2,2,0,0,0-2-2H15.1241a2,2,0,0,1-1.28038-.46357L12.5563,6.46357A2,2,0,0,0,11.27592,6H4A2,2,0,0,0,2,8V24a2,2,0,0,0,2,2H26l4.80523-11.21213A2,2,0,0,0,28.96692,12Z" style="fill:#757575"/><path d="M31.209,25.3869l-3.868-3.868a1.2649,1.2649,0,0,0-1.78882,0l-.51978.51978-1.41424-1.41419,2.12134-2.12134a2.99107,2.99107,0,0,0,.57745-3.40509l2.34613-2.34613a.866.866,0,0,0,0-1.22473l-.18945-.18951a.86607.86607,0,0,0-1.22473,0L24.903,13.68353a2.99106,2.99106,0,0,0-3.40613.577l-2.12134,2.12134-1.41424-1.41425.51983-.51978a1.26489,1.26489,0,0,0,0-1.78881l-3.868-3.868a1.26487,1.26487,0,0,0-1.78882,0l-2.45379,2.45374a1.265,1.265,0,0,0,0,1.78888l3.868,3.868a1.26492,1.26492,0,0,0,1.78888-.00006l.51977-.51971L17.96129,17.796l-.70709.70709a2.99126,2.99126,0,0,0-.57721,3.40564l-.837.837A1,1,0,0,0,17.2542,24.16l.837-.837a2.99129,2.99129,0,0,0,3.40564-.57721l.70709-.70715,1.41419,1.41424-.51972.51978a1.26485,1.26485,0,0,0-.00006,1.78881l3.86805,3.86805a1.265,1.265,0,0,0,1.78887,0l2.45374-2.4538A1.26485,1.26485,0,0,0,31.209,25.3869Z" style="fill:#e0e0e0"/></svg>