<svg xmlns="http://www.w3.org/2000/svg" viewBox="0 0 32 32"><path d="M13.84376,7.53645l-1.28749-1.0729A2,2,0,0,0,11.27591,6H4A2,2,0,0,0,2,8V24a2,2,0,0,0,2,2H28a2,2,0,0,0,2-2V10a2,2,0,0,0-2-2H15.12412A2,2,0,0,1,13.84376,7.53645Z" style="fill:#607d8b"/><path d="M28,28V18l-8-8H18a2,2,0,0,0-2,2V28a2,2,0,0,0,2,2H30V28Zm-2,0H18.5a.5.5,0,0,1-.5-.5v-1a.5.5,0,0,1,.5-.5H20l6-6Z" style="fill:#880e4f"/><path d="M20,10h8a2,2,0,0,1,2,2V24a2,2,0,0,1-2,2H20a0,0,0,0,1,0,0V10A0,0,0,0,1,20,10Z" style="fill:#f44336"/></svg>