<svg xmlns="http://www.w3.org/2000/svg" viewBox="0 0 32 32"><path d="M13.84376,7.53645l-1.28749-1.0729A2,2,0,0,0,11.27591,6H4A2,2,0,0,0,2,8V24a2,2,0,0,0,2,2H28a2,2,0,0,0,2-2V10a2,2,0,0,0-2-2H15.12412A2,2,0,0,1,13.84376,7.53645Z" style="fill:#616161"/><path d="M16,16h6.87234a2.08771,2.08771,0,0,1,2.12259,1.85662,1.98932,1.98932,0,0,1-1.02276,1.88105l3.34936,2.41809a5.975,5.975,0,0,0,1.67777-4.0637A6.21633,6.21633,0,0,0,22.74578,12H10.00439l5.17136,3.73331A1.40711,1.40711,0,0,0,16,16Zm3.09205,2.61351L31.99925,28H26.19938a2.81514,2.81514,0,0,1-1.65682-.54254L17.638,22.43638l-1.85616,5.30036A.38616.38616,0,0,1,15.41991,28H10.77107l3.22945-9.22053a1.14862,1.14862,0,0,1,1.08566-.77876H15.859A5.39668,5.39668,0,0,1,19.09205,18.61351Z" style="fill:#eee"/></svg>