<svg xmlns="http://www.w3.org/2000/svg" viewBox="0 0 32 32"><path d="M13.84376,7.53645l-1.28749-1.0729A2,2,0,0,0,11.27591,6H4A2,2,0,0,0,2,8V24a2,2,0,0,0,2,2H28a2,2,0,0,0,2-2V10a2,2,0,0,0-2-2H15.12412A2,2,0,0,1,13.84376,7.53645Z" style="fill:#2962ff"/><path d="M28,14H24V12H18v2H14l-4-4v4a3.995,3.995,0,0,0,3.284,3.92786A7.91255,7.91255,0,0,0,15.7207,26H18v2h6V26h2.2793a7.91255,7.91255,0,0,0,2.4367-8.07214A3.995,3.995,0,0,0,32,14V10ZM18,24H16V22h2Zm0-6H16V16h2Zm4,8H20V24h2Zm0-10H20V14h2Zm4,8H24V22h2Zm0-6H24V16h2Z" style="fill:#bbdefb"/></svg>