<svg xmlns="http://www.w3.org/2000/svg" viewBox="0 0 32 32"><path d="M28.96692,12H9.44152a2,2,0,0,0-1.89737,1.36754L4,24V10H28a2,2,0,0,0-2-2H15.1241a2,2,0,0,1-1.28038-.46357L12.5563,6.46357A2,2,0,0,0,11.27592,6H4A2,2,0,0,0,2,8V24a2,2,0,0,0,2,2H26l4.80523-11.21213A2,2,0,0,0,28.96692,12Z" style="fill:#607d8b"/><path d="M28,28V18l-8-8H18a2,2,0,0,0-2,2V28a2,2,0,0,0,2,2H30V28Zm-2,0H18.5a.5.5,0,0,1-.5-.5v-1a.5.5,0,0,1,.5-.5H20l6-6Z" style="fill:#880e4f"/><path d="M20,10h8a2,2,0,0,1,2,2V24a2,2,0,0,1-2,2H20a0,0,0,0,1,0,0V10A0,0,0,0,1,20,10Z" style="fill:#f44336"/></svg>