<svg xmlns="http://www.w3.org/2000/svg" viewBox="0 0 32 32"><path d="M13.84376,7.53645l-1.28749-1.0729A2,2,0,0,0,11.27591,6H4A2,2,0,0,0,2,8V24a2,2,0,0,0,2,2H28a2,2,0,0,0,2-2V10a2,2,0,0,0-2-2H15.12412A2,2,0,0,1,13.84376,7.53645Z" style="fill:#7e57c2"/><path d="M31.84387,12v1.10291c-1.13366,1.35223-2.12561,2.53546-3.04675,3.63415-.921,1.09872-1.77124,2.11289-2.62146,3.12708-.85034,1.01419-1.70056,2.02835-2.62164,3.12707s-1.913,2.28192-3.0467,3.63416c1.16681-.032,2.04194-.05594,2.91706-.0799.87518-.024,1.7503-.048,2.917-.07992a4.85428,4.85428,0,0,0,2.77564-.63538A4.65814,4.65814,0,0,0,30.63416,23.013H32c-.0625,1.99481-.09363,2.99219-.15613,4.987H16V26.89709c1.118-1.35223,2.09637-2.53546,3.00476-3.63415.90845-1.09872,1.74695-2.11289,2.58551-3.12708s1.67706-2.02835,2.58551-3.12707,1.88672-2.28192,3.00476-3.63416l-2.52685.07193-2.52686.07193a5.78239,5.78239,0,0,0-3.06341.61737,4.56,4.56,0,0,0-1.54145,2.5954H16.15613c.06244-1.89251.09363-2.83874.15606-4.73126H31.84387Z" style="fill:#c4b8da"/><path d="M32,12H16v6h2V16a2,2,0,0,1,2-2h6L16,26v2H32V22H30v2a2.00006,2.00006,0,0,1-2,2H22L32,14Z" style="fill:#d1c4e9"/></svg>