<svg xmlns="http://www.w3.org/2000/svg" viewBox="0 0 32 32"><path d="M28.96692,12H9.44152a2,2,0,0,0-1.89737,1.36754L4,24V10H28a2,2,0,0,0-2-2H15.1241a2,2,0,0,1-1.28038-.46357L12.5563,6.46357A2,2,0,0,0,11.27592,6H4A2,2,0,0,0,2,8V24a2,2,0,0,0,2,2H26l4.80523-11.21213A2,2,0,0,0,28.96692,12Z" style="fill:#795548"/><polygon points="28 24 28 26 14 26 14 24 10 24 10 26 10 28 32 28 32 26 32 24 28 24" style="fill:#d7ccc8"/><polygon points="26 16 22 16 22 18 20 18 20 16 16 16 16 24 26 24 26 16" style="fill:#d7ccc8"/></svg>