<svg xmlns="http://www.w3.org/2000/svg" viewBox="0 0 32 32"><path d="M28.96692,12H9.44152a2,2,0,0,0-1.89737,1.36754L4,24V10H28a2,2,0,0,0-2-2H15.1241a2,2,0,0,1-1.28038-.46357L12.5563,6.46357A2,2,0,0,0,11.27592,6H4A2,2,0,0,0,2,8V24a2,2,0,0,0,2,2H26l4.80523-11.21213A2,2,0,0,0,28.96692,12Z" style="fill:#757575"/><path d="M29.58886,13.98188l-2.13693-2.13925L15.81437,23.45754l2.14341,2.13923A8.21869,8.21869,0,1,0,29.58883,13.98186Z" style="fill:#6d4c41"/><path d="M27.91539,21.723a3.59823,3.59823,0,0,1,.39266-1.49689c1.49975-2.90372,1.26159-6.26994-.85608-8.38349a6.866,6.866,0,0,0-7.03532-1.42615,2.63024,2.63024,0,0,0-1.5448,1.317A4.03258,4.03258,0,0,1,17.8613,12.954a4.00087,4.00087,0,0,1-1.35171.79663,2.61311,2.61311,0,0,0-1.5448,1.31049c-1.50619,2.90368-1.268,6.27636.84963,8.39633a6.2382,6.2382,0,0,0,3.70109,1.76021,2.75575,2.75575,0,0,1,1.21657.469,1.31894,1.31894,0,0,0,.93976.14769,1.73241,1.73241,0,0,0,.914-.44969,4.34726,4.34726,0,0,1,1.23584-.88c.0515-.02567.09656-.045.148-.07073a3.61831,3.61831,0,0,1,1.50619-.34048A2.88548,2.88548,0,0,0,27.91539,21.723Z" style="fill:#8d6e63"/><path d="M27.26528,20.84284a2.2201,2.2201,0,0,1,.23816-.99574,6.22142,6.22142,0,0,0-.77884-7.285,6.046,6.046,0,0,0-6.35946-1.17562,1.19411,1.19411,0,0,0-.72091.77089,3.56383,3.56383,0,0,1-1.1264,1.52253,3.322,3.322,0,0,1-1.68.85441,1.13583,1.13583,0,0,0-.88827.57817c-1.48039,2.60175-1.326,5.6982.59866,7.619A5.51712,5.51712,0,0,0,20.02406,24.299a1.68145,1.68145,0,0,1,.87539.35333,1.27779,1.27779,0,0,0,1.02344.14133,1.685,1.685,0,0,0,.95262-.56532,2.153,2.153,0,0,1,.79172-.62957l.15447-.07708a2.15759,2.15759,0,0,1,.99769-.24413,2.48265,2.48265,0,0,0,1.63495-.80946A2.55258,2.55258,0,0,0,27.26528,20.84284Z" style="fill:#e0e0e0"/><path d="M26.56372,19.87286a.74168.74168,0,0,1,.0515-.53321,5.17938,5.17938,0,0,0-.72091-5.95521,4.972,4.972,0,0,0-4.89829-1.1178,1.02739,1.02739,0,0,0-.708.73877,3.46361,3.46361,0,0,1-1.13284,1.54822,3.30932,3.30932,0,0,1-1.6864.85444,1.03756,1.03756,0,0,0-.86248.59745,5.15789,5.15789,0,0,0,.753,5.88452,4.64862,4.64862,0,0,0,3.051,1.32337.59.59,0,0,1,.41839.18631,1.20206,1.20206,0,0,0,1.10067.20557,1.62668,1.62668,0,0,0,1.01056-.64884.9371.9371,0,0,1,.3862-.34048h.00643a.72342.72342,0,0,1,.52781-.045,2.15717,2.15717,0,0,0,1.93745-.76447A2.17068,2.17068,0,0,0,26.56372,19.87286Z" style="fill:#9e9e9e"/></svg>